<svg xmlns="http://www.w3.org/2000/svg" width="784.742" height="157.485" viewBox="0 0 784.742 157.485">
  <g id="reactor_logo" data-name="reactor logo" transform="translate(1.5 1.502)">
    <path id="Path_4855" data-name="Path 4855" d="M283.632,170.678a27.157,27.157,0,0,1-.39,4.59,26.092,26.092,0,0,1-.91,3.718c-.2-.818-.45-1.614-.72-2.4a26.587,26.587,0,0,0-2.46-5.1,25.571,25.571,0,0,0-3.82-4.76,24.34,24.34,0,0,0-7-4.76c-.37-.17-.75-.318-1.13-.457v-.01a19.512,19.512,0,0,0,.42-2.072c.04-.276.08-.552.11-.829.06-.478.09-.956.11-1.423a1.03,1.03,0,0,1,.01-.17c0-.255.01-.521.01-.786a26.994,26.994,0,0,0-1.56-9.052q-.15-.447-.33-.893c-.05-.117-.09-.234-.14-.35h.01a24.745,24.745,0,0,1,2.96,1.083,22.609,22.609,0,0,1,3.71,2.072,24.69,24.69,0,0,1,3.3,2.688,25.082,25.082,0,0,1,3.81,4.749,26.4,26.4,0,0,1,2.46,5.11A26.993,26.993,0,0,1,283.632,170.678Z" transform="translate(-122.252 -101.341)" fill="#394dff" stroke="#fff" stroke-width="3"/>
    <path id="Path_4856" data-name="Path 4856" d="M283.162,185.637a27.157,27.157,0,0,1-.39,4.59,26.772,26.772,0,0,1-3.62,9.572c-.12.192-.25.383-.37.574q-.24.366-.48.7a24.627,24.627,0,0,1-6.78,6.513,23.5,23.5,0,0,1-7.56,3.166,22.573,22.573,0,0,1-6.86.457c-.17-.011-.34-.032-.51-.043a22.913,22.913,0,0,1-4.06-.818,23.411,23.411,0,0,0,5.39-2.571,24.745,24.745,0,0,0,6.78-6.5l.48-.7c.13-.191.25-.383.37-.584.25-.4.49-.808.72-1.233a23.317,23.317,0,0,0,1.4-3.017,27.353,27.353,0,0,0,1.66-7.256c0-.054.01-.107.01-.16a27.5,27.5,0,0,0,.06-4.058,27.819,27.819,0,0,0-1.77-8.425,25.417,25.417,0,0,0-1.07-2.391c-.13-.244-.26-.489-.39-.722l-.24-.415c-.12-.212-.25-.425-.38-.637a3.043,3.043,0,0,0-.22-.319,3.147,3.147,0,0,0-.21-.35c-.07-.107-.15-.213-.23-.319a3.644,3.644,0,0,0-.35-.489,23.1,23.1,0,0,0-2.81-3.272,23.857,23.857,0,0,0-7-4.76q-.735-.334-1.5-.6v-.011c.63-.234,1.26-.446,1.88-.627s1.2-.329,1.78-.446a16.386,16.386,0,0,1,3.57-.4,8.981,8.981,0,0,1,.94.043c.11,0,.22.021.33.032a23.19,23.19,0,0,1,5.47,1.349v.01c.38.139.76.287,1.13.457a24.34,24.34,0,0,1,7,4.76,25.571,25.571,0,0,1,3.82,4.76,26.587,26.587,0,0,1,2.46,5.1c.27.787.52,1.583.72,2.4A27.03,27.03,0,0,1,283.162,185.637Z" transform="translate(-122.252 -101.341)" fill="#43e2b1" stroke="#fff" stroke-width="3"/>
    <path id="Path_4857" data-name="Path 4857" d="M272.632,146.54c0,.85-.04,1.689-.12,2.539a22.609,22.609,0,0,0-3.71-2.072,24.745,24.745,0,0,0-2.96-1.083h-.01a27.249,27.249,0,0,0-1.98-3.868,25.53,25.53,0,0,0-3.82-4.749,24.1,24.1,0,0,0-7-4.759,23.274,23.274,0,0,0-6.78-1.849c.06-.244.12-.5.18-.744.06-.308.12-.6.17-.892a2.541,2.541,0,0,0,.06-.383,8.778,8.778,0,0,0,.12-1c.03-.319.05-.627.05-.935,0-.191,0-.383-.01-.563a27.139,27.139,0,0,0-.7-5.174,22.557,22.557,0,0,1,4.79,0,23.008,23.008,0,0,1,6.89,1.859,23.838,23.838,0,0,1,7,4.76,25.1,25.1,0,0,1,3.82,4.749,26.377,26.377,0,0,1,2.46,5.11A26.989,26.989,0,0,1,272.632,146.54Z" transform="translate(-122.252 -101.341)" fill="#43e2b1" stroke="#fff" stroke-width="3"/>
    <path id="Path_4858" data-name="Path 4858" d="M241.962,160.447a1.88,1.88,0,0,1,.34-.042,21.958,21.958,0,0,1,5.54-.1,23.02,23.02,0,0,1,5.39,1.254q.765.27,1.5.6a23.857,23.857,0,0,1,7,4.76,23.1,23.1,0,0,1,2.81,3.272c.12.159.24.319.35.489a6.4,6.4,0,0,1,.44.669c.22.308.41.627.6.956l.24.415c.13.233.26.478.39.722a25.417,25.417,0,0,1,1.07,2.391,27.819,27.819,0,0,1,1.77,8.425,27.5,27.5,0,0,1-.06,4.058c0,.053-.01.106-.01.16a27.353,27.353,0,0,1-1.66,7.256,23.317,23.317,0,0,1-1.4,3.017c-.23.425-.47.829-.72,1.233-.12.2-.24.393-.37.584l-.48.7a24.745,24.745,0,0,1-6.78,6.5,23.411,23.411,0,0,1-5.39,2.571c-.28.1-.57.181-.85.266.07-.393.12-.786.17-1.19a3.716,3.716,0,0,0,0-.818c0-.032-.01-.064-.01-.1s-.01-.1-.02-.138c-.02-.138-.05-.276-.08-.425a16.086,16.086,0,0,0-1.91-4.3c-.04-.074-.08-.138-.12-.212a50.319,50.319,0,0,0-5.05-6.8c-.17-.2-.34-.393-.51-.6-.51-.573-1.04-1.147-1.58-1.731a77.881,77.881,0,0,0-6.01-5.737c-.12-.107-.23-.2-.34-.3a.219.219,0,0,1-.06-.042c-1.57-1.329-3.12-2.518-4.6-3.538-.21-.149-.41-.287-.62-.415-.55-.372-1.09-.712-1.62-1.03a22.172,22.172,0,0,0-3.4-1.7c.07-.329.15-.659.22-1,.51-2.21,1.12-4.366,1.79-6.4.15-.425.29-.839.44-1.253.13-.351.26-.691.38-1.02,1.5-1.615,3.1-3.23,4.66-4.739.28-.255.55-.52.82-.775,1.87-1.764,3.59-3.251,4.96-4.3a17.234,17.234,0,0,1,1.84-1.264c.16-.085.31-.16.43-.213a2.249,2.249,0,0,1,.4-.127C241.892,160.458,241.932,160.447,241.962,160.447Z" transform="translate(-122.252 -101.341)" fill="#394dff" stroke="#fff" stroke-width="3"/>
    <path id="Path_4859" data-name="Path 4859" d="M267.862,156.219c0,.265-.01.531-.01.786a1.03,1.03,0,0,0-.01.17c-.02.467-.05.945-.11,1.423-.03.277-.07.553-.11.829a19.512,19.512,0,0,1-.42,2.072,23.19,23.19,0,0,0-5.47-1.349c-.11-.011-.22-.032-.33-.032a8.981,8.981,0,0,0-.94-.043,16.386,16.386,0,0,0-3.57.4c-.58.117-1.17.266-1.78.446s-1.25.393-1.88.627v.011a23.02,23.02,0,0,0-5.39-1.254,21.958,21.958,0,0,0-5.54.1v-.011a27.3,27.3,0,0,0,.35-4.324,27,27,0,0,0-1.56-9.052,26.336,26.336,0,0,0-2.45-5.11,25.5,25.5,0,0,0-3.82-4.749,24.446,24.446,0,0,0-3.44-2.795c-.05-.031-.11-.074-.16-.106a23.367,23.367,0,0,1,7.54-3.155,22.939,22.939,0,0,1,7.37-.415c.04,0,.08.011.12.011a23.274,23.274,0,0,1,6.78,1.849,24.1,24.1,0,0,1,7,4.759,25.53,25.53,0,0,1,3.82,4.749,27.249,27.249,0,0,1,1.98,3.868c.05.116.09.233.14.35q.18.447.33.893A26.994,26.994,0,0,1,267.862,156.219Z" transform="translate(-122.252 -101.341)" fill="#43e2b1" stroke="#fff" stroke-width="3"/>
    <path id="Path_4860" data-name="Path 4860" d="M257.892,217.723a27.157,27.157,0,0,1-.39,4.589,26.6,26.6,0,0,1-3.62,9.573c-.12.191-.25.382-.37.573-.16.245-.32.468-.48.7a24.637,24.637,0,0,1-6.78,6.512,23.5,23.5,0,0,1-7.56,3.166,23.2,23.2,0,0,1-7.37.415,22.485,22.485,0,0,1-3.12-.563v-.011c.4-.754.76-1.541,1.09-2.337a10.216,10.216,0,0,0,.57-3.751c0-.212,0-.425-.01-.637a28.725,28.725,0,0,0-.48-4.239h.01a22.974,22.974,0,0,0,3.48-.5,23.254,23.254,0,0,0,7.56-3.166,24.886,24.886,0,0,0,6.78-6.5c.16-.233.32-.467.47-.7.13-.191.26-.382.38-.584a26.706,26.706,0,0,0,3.62-9.573c0-.021.01-.053.01-.074.28-.085.57-.17.85-.266a22.913,22.913,0,0,0,4.06.818c.17.011.34.032.51.043A27.414,27.414,0,0,1,257.892,217.723Z" transform="translate(-122.252 -101.341)" fill="#394dff" stroke="#fff" stroke-width="3"/>
    <path id="Path_4861" data-name="Path 4861" d="M229.342,231.715a22.213,22.213,0,0,1-3.85-.085,23.072,23.072,0,0,1-6.9-1.86,23.885,23.885,0,0,1-7-4.759c-.41-.4-.8-.808-1.19-1.243v-.011a.081.081,0,0,1,.02-.042c.01,0,.01-.011.01-.011a.379.379,0,0,0,.05-.1v-.01a2.085,2.085,0,0,0,.06-.266,33.648,33.648,0,0,0,.14-3.835v-.808c-.01-2.125-.08-4.77-.2-7.66v-.021c-.02-.329-.03-.669-.05-1v-.032c-.15-3.548-.37-7.192-.62-10.39a1.035,1.035,0,0,0-.01-.181c-.18-2.358-.37-4.377-.55-5.886-.01-.031-.01-.074-.02-.116a18.662,18.662,0,0,0-.41-2.476c.24-.276.49-.542.76-.818a27.766,27.766,0,0,1,2.19-1.965c.23-.181.46-.362.7-.532.27-.212.55-.414.83-.605a34.83,34.83,0,0,1,10.37-4.909l.81-.223c.48-.117.97-.234,1.44-.329a22.172,22.172,0,0,1,3.4,1.7c.53.318,1.07.658,1.62,1.03.21.128.41.266.62.415,1.48,1.02,3.03,2.209,4.6,3.538a.219.219,0,0,0,.06.042c.11.1.22.191.34.3a77.881,77.881,0,0,1,6.01,5.737c.54.584,1.07,1.158,1.58,1.731.17.2.34.393.51.6a50.319,50.319,0,0,1,5.05,6.8c.04.074.08.138.12.212a16.086,16.086,0,0,1,1.91,4.3c.03.149.06.287.08.425.01.043.01.1.02.138s.01.064.01.1a3.716,3.716,0,0,1,0,.818c-.05.4-.1.8-.17,1.19,0,.021-.01.053-.01.074a26.706,26.706,0,0,1-3.62,9.573c-.12.2-.25.393-.38.584-.15.234-.31.468-.47.7a24.886,24.886,0,0,1-6.78,6.5,23.254,23.254,0,0,1-7.56,3.166,22.974,22.974,0,0,1-3.48.5h-.04Z" transform="translate(-122.252 -101.341)" fill="#43e2b1" stroke="#fff" stroke-width="3"/>
    <path id="Path_4862" data-name="Path 4862" d="M246.822,126.184c.01.18.01.372.01.563,0,.308-.02.616-.05.935a8.778,8.778,0,0,1-.12,1,2.541,2.541,0,0,1-.06.383c-.05.287-.11.584-.17.892-.06.245-.12.5-.18.744-.04,0-.08-.011-.12-.011a22.939,22.939,0,0,0-7.37.415,23.367,23.367,0,0,0-7.54,3.155,23.691,23.691,0,0,0-3.4-1.859,23.07,23.07,0,0,0-6.9-1.859,22.8,22.8,0,0,0-4.34-.043c.07-.807.1-1.6.1-2.412a26.983,26.983,0,0,0-1.55-9.051,26.413,26.413,0,0,0-2.46-5.111,25.131,25.131,0,0,0-3.82-4.749c-.55-.531-1.12-1.041-1.71-1.519a24.338,24.338,0,0,1,3.05-2.327,23.5,23.5,0,0,1,7.56-3.166,22.6,22.6,0,0,1,7.37-.414,23.1,23.1,0,0,1,6.9,1.859,23.907,23.907,0,0,1,7,4.76,25.5,25.5,0,0,1,3.82,4.749,27.278,27.278,0,0,1,3.28,7.894A27.139,27.139,0,0,1,246.822,126.184Z" transform="translate(-122.252 -101.341)" fill="#43e2b1" stroke="#fff" stroke-width="3"/>
    <path id="Path_4863" data-name="Path 4863" d="M216.582,130.5a22.8,22.8,0,0,1,4.34.043,23.07,23.07,0,0,1,6.9,1.859,23.691,23.691,0,0,1,3.4,1.859c.05.032.11.075.16.106a24.446,24.446,0,0,1,3.44,2.795,25.5,25.5,0,0,1,3.82,4.749,26.336,26.336,0,0,1,2.45,5.11,27,27,0,0,1,1.56,9.052,27.3,27.3,0,0,1-.35,4.324v.011a1.88,1.88,0,0,0-.34.042c-.03,0-.07.011-.1.011a2.249,2.249,0,0,0-.4.127c-.12.053-.27.128-.43.213a17.234,17.234,0,0,0-1.84,1.264c-1.37,1.052-3.09,2.539-4.96,4.3-.27.255-.54.52-.82.775-1.56,1.509-3.16,3.124-4.66,4.739-1.2.074-2.46.117-3.78.138-1.52.021-3.1,0-4.7-.064-1.65-.053-3.31-.159-4.96-.287-1.19-.106-2.37-.223-3.53-.361-1.76-.212-3.44-.467-5.01-.754-1.86-.34-3.54-.733-4.99-1.148-.26-.085-.52-.159-.77-.244a1,1,0,0,1-.16-.053c-.26-.085-.5-.16-.74-.245a23.836,23.836,0,0,0-.48-2.656c-.05-.233-.11-.478-.17-.711-.08-.319-.17-.649-.28-.978q-.165-.558-.36-1.115l-.03-.1a21.373,21.373,0,0,0-.97-2.327.342.342,0,0,0-.06-.138,23.575,23.575,0,0,0-1.43-2.635,24.105,24.105,0,0,0-1.89-2.624l.01-.011a14.169,14.169,0,0,1,.01-1.965,3.15,3.15,0,0,1,.53-.839c.17-.213.37-.478.62-.776.39-.478.87-1.052,1.44-1.7.58-.669,1.25-1.423,1.99-2.242l1.85-2.029c.83-.9,1.71-1.838,2.61-2.794,1.03-1.094,2.09-2.21,3.14-3.293l.8-.819c.84-.871,1.66-1.7,2.44-2.486.82-.828,1.59-1.593,2.3-2.284.31-.308.61-.6.9-.871.73-.7,1.36-1.3,1.88-1.764.34-.3.62-.552.86-.743a3.344,3.344,0,0,1,.64-.447.037.037,0,0,1,.03-.01.035.035,0,0,1,.03-.011Z" transform="translate(-122.252 -101.341)" fill="#43e2b1" stroke="#fff" stroke-width="3"/>
    <path id="Path_4864" data-name="Path 4864" d="M192.662,250.711c-.65-.51-1.26-1.062-1.86-1.636a25.531,25.531,0,0,1-3.82-4.749,26.375,26.375,0,0,1-2.45-5.111,26.836,26.836,0,0,1-1.08-3.962c.14-.043.29-.085.43-.128.03-.01.05-.01.08-.021a2.655,2.655,0,0,0,.75-.446,12.594,12.594,0,0,0,1.34-1.307,20.648,20.648,0,0,0,2.66.457,22.9,22.9,0,0,0,7.37-.415,21.982,21.982,0,0,0,2.72-.786l.01.011c.69.34,1.39.659,2.11.967.35.148.7.286,1.05.425.84.329,1.7.626,2.57.9a39.647,39.647,0,0,0,8.09,1.615c.95.085,1.89.127,2.81.127a28.429,28.429,0,0,0,5.42-.467,19.6,19.6,0,0,0,3.62-1.052,14.462,14.462,0,0,0,2.04-1.01c.21-.127.42-.255.61-.393a8.737,8.737,0,0,0,1.07-.828,8.922,8.922,0,0,0,1.14-1.19h.03a28.725,28.725,0,0,1,.48,4.239c.01.212.01.425.01.637a10.216,10.216,0,0,1-.57,3.751c-.33.8-.69,1.583-1.09,2.337v.011h-.01c-.28.563-.6,1.094-.93,1.636-.12.191-.25.382-.37.573q-.24.367-.48.7a24.637,24.637,0,0,1-6.78,6.512,23.5,23.5,0,0,1-7.56,3.166,22.829,22.829,0,0,1-14.27-1.445A24.093,24.093,0,0,1,192.662,250.711Z" transform="translate(-122.252 -101.341)" fill="#43e2b1" stroke="#fff" stroke-width="3"/>
    <path id="Path_4865" data-name="Path 4865" d="M229.342,231.715a8.922,8.922,0,0,1-1.14,1.19,8.737,8.737,0,0,1-1.07.828c-.19.138-.4.266-.61.393a14.462,14.462,0,0,1-2.04,1.01,19.6,19.6,0,0,1-3.62,1.052,28.429,28.429,0,0,1-5.42.467c-.92,0-1.86-.042-2.81-.127a39.647,39.647,0,0,1-8.09-1.615c-.87-.277-1.73-.574-2.57-.9-.35-.139-.7-.277-1.05-.425-.72-.308-1.42-.627-2.11-.967l-.01-.011v-.01a23.442,23.442,0,0,0,4.84-2.37,24.958,24.958,0,0,0,6.76-6.459c.39.435.78.839,1.19,1.243a23.885,23.885,0,0,0,7,4.759,23.072,23.072,0,0,0,6.9,1.86A22.213,22.213,0,0,0,229.342,231.715Z" transform="translate(-122.252 -101.341)" fill="#43e2b1" stroke="#fff" stroke-width="3"/>
    <path id="Path_4866" data-name="Path 4866" d="M228.752,171.879c-.12.329-.25.669-.38,1.02-.15.414-.29.828-.44,1.253-.67,2.03-1.28,4.186-1.79,6.4-.07.34-.15.67-.22,1-.47.1-.96.212-1.44.329l-.81.223a34.83,34.83,0,0,0-10.37,4.909c-.28.191-.56.393-.83.605-.24.17-.47.351-.7.532a27.766,27.766,0,0,0-2.19,1.965c-.27.276-.52.542-.76.818a29.363,29.363,0,0,0-2.33-2.337c-.09-.085-.19-.17-.29-.255a22.7,22.7,0,0,0-4.36-3.049q-.345-.192-.69-.351c-.23-.117-.46-.223-.7-.329a25.05,25.05,0,0,0-2.57-.967,24.534,24.534,0,0,0,1.07-2.741.816.816,0,0,1,.04-.117c.08-.223.15-.457.22-.7.13-.393.24-.8.34-1.222.18-.723.33-1.477.45-2.242a28.731,28.731,0,0,0,.33-3.41c0-.287.01-.563.01-.85,0-.191,0-.372-.01-.563a25.938,25.938,0,0,0-.22-2.933c.24.085.48.16.74.245a1,1,0,0,0,.16.053c.25.085.51.159.77.244,1.45.415,3.13.808,4.99,1.148,1.57.287,3.25.542,5.01.754,1.16.138,2.34.255,3.53.361,1.65.128,3.31.234,4.96.287,1.6.064,3.18.085,4.7.064C226.292,172,227.552,171.953,228.752,171.879Z" transform="translate(-122.252 -101.341)" fill="#43e2b1" stroke="#fff" stroke-width="3"/>
    <path id="Path_4867" data-name="Path 4867" d="M170.642,138.922v-.01c-.25-.585-.49-1.169-.7-1.775a26.985,26.985,0,0,1-1.55-9.052c0-.456.01-.9.03-1.359a29.069,29.069,0,0,1,.36-3.22,26.464,26.464,0,0,1,3.62-9.583c.12-.191.24-.382.37-.573.16-.234.31-.468.48-.7a24.945,24.945,0,0,1,6.78-6.512,23.162,23.162,0,0,1,7.56-3.156,22.61,22.61,0,0,1,6.6-.488c.26.021.51.042.77.074a22.67,22.67,0,0,1,6.89,1.849,24.081,24.081,0,0,1,5.29,3.24c.59.478,1.16.988,1.71,1.519a25.131,25.131,0,0,1,3.82,4.749,26.413,26.413,0,0,1,2.46,5.111,26.983,26.983,0,0,1,1.55,9.051c0,.808-.03,1.6-.1,2.412h-.06a.035.035,0,0,0-.03.011.037.037,0,0,0-.03.01,3.344,3.344,0,0,0-.64.447c-.24.191-.52.446-.86.743-.52.468-1.15,1.063-1.88,1.764-.29.276-.59.563-.9.871-.71.691-1.48,1.456-2.3,2.284-.78.787-1.6,1.615-2.44,2.486l-.8.819c-1.05,1.083-2.11,2.2-3.14,3.293-.9.956-1.78,1.891-2.61,2.794l-1.85,2.029c-.74.819-1.41,1.573-1.99,2.242-.57.648-1.05,1.222-1.44,1.7-.25.3-.45.563-.62.776a3.15,3.15,0,0,0-.53.839,14.169,14.169,0,0,0-.01,1.965l-.01.011a22.34,22.34,0,0,0-1.93-2.125,23.884,23.884,0,0,0-7-4.759,22.991,22.991,0,0,0-6.9-1.86,20.875,20.875,0,0,0-2.69-.117v-.01a25.214,25.214,0,0,1-3.52-4.462,26.3,26.3,0,0,1-1.68-3.166C170.692,139.028,170.672,138.975,170.642,138.922Z" transform="translate(-122.252 -101.341)" fill="#1d34ff" stroke="#fff" stroke-width="3"/>
    <path id="Path_4868" data-name="Path 4868" d="M210.342,223.7l.05.053.01.011a24.958,24.958,0,0,1-6.76,6.459,23.442,23.442,0,0,1-4.84,2.37v.01a21.982,21.982,0,0,1-2.72.786,22.9,22.9,0,0,1-7.37.415,20.648,20.648,0,0,1-2.66-.457,22.3,22.3,0,0,1-4.23-1.4,24.1,24.1,0,0,1-7-4.759A25.13,25.13,0,0,1,171,222.44a26.412,26.412,0,0,1-2.46-5.111,27.147,27.147,0,0,1-1.32-12.568c.05-.361.1-.712.16-1.063a26.988,26.988,0,0,1,2.07-6.7c.01,0,.02.01.03.01-.01-.01-.02-.01-.02-.021v-.011a1.281,1.281,0,0,1,.38-.3c.28-.17.69-.4,1.25-.712.54-.287,1.2-.637,1.96-1.031.43-.212.88-.446,1.36-.69a1.025,1.025,0,0,0,.19-.085c1.8-.9,3.94-1.944,6.23-3.039q.93-.445,1.89-.892c.07-.043.14-.074.2-.106.68-.319,1.36-.627,2.03-.946,1.57-.733,3.11-1.434,4.54-2.082.66-.3,1.3-.585,1.91-.861.51-.223,1-.435,1.47-.648.54-.234,1.04-.446,1.5-.648,1.19-.5,2.11-.871,2.7-1.084.17-.063.32-.117.44-.148.05-.011.09-.022.13-.032-.09.127-.17.244-.25.35a6.264,6.264,0,0,1,2.22.319,10.964,10.964,0,0,1,1.11.414c.14.054.28.117.43.181q.345.159.69.351a22.7,22.7,0,0,1,4.36,3.049c.1.085.2.17.29.255a29.363,29.363,0,0,1,2.33,2.337,18.662,18.662,0,0,1,.41,2.476c.01.042.01.085.02.116.18,1.509.37,3.528.55,5.886a1.035,1.035,0,0,1,.01.181c.25,3.2.47,6.842.62,10.39v.032c.02.33.03.67.05,1v.021c.12,2.89.19,5.535.2,7.66v.808a33.648,33.648,0,0,1-.14,3.835,2.085,2.085,0,0,1-.06.266v.01a.379.379,0,0,1-.05.1s0,.011-.01.011C210.4,223.747,210.372,223.747,210.342,223.7Z" transform="translate(-122.252 -101.341)" fill="#43e2b1" stroke="#fff" stroke-width="3"/>
    <path id="Path_4869" data-name="Path 4869" d="M152.072,171.263a28.935,28.935,0,0,1,.36-3.485c.06-.361.13-.723.21-1.073a26.649,26.649,0,0,1,3.41-8.5c.13-.2.25-.393.38-.584.15-.234.31-.468.47-.7a24.923,24.923,0,0,1,6.79-6.5,23.112,23.112,0,0,1,7.55-3.166,22.452,22.452,0,0,1,4.68-.532,20.875,20.875,0,0,1,2.69.117,22.991,22.991,0,0,1,6.9,1.86,23.884,23.884,0,0,1,7,4.759,22.34,22.34,0,0,1,1.93,2.125,24.105,24.105,0,0,1,1.89,2.624,23.575,23.575,0,0,1,1.43,2.635.342.342,0,0,1,.06.138,21.373,21.373,0,0,1,.97,2.327l.03.1q.195.557.36,1.115c.1.329.19.648.28.978.06.233.12.478.17.711.06.287.11.563.16.829.09.457.14.893.18,1.286.01.17.02.34.02.488a15.682,15.682,0,0,1,.29,2.008c.02.319.04.638.05.978.01.191.01.372.01.563,0,.287-.01.563-.01.85a28.731,28.731,0,0,1-.33,3.41c-.12.765-.27,1.519-.45,2.242-.1.414-.21.818-.34,1.222-.07.244-.14.478-.22.7a.816.816,0,0,0-.04.117l-.18.478a12.429,12.429,0,0,1-.91,1.933c-.07.128-.15.255-.22.362-.04.01-.08.021-.13.032-.12.031-.27.085-.44.148-.59.213-1.51.585-2.7,1.084-.46.2-.96.414-1.5.648-.47.213-.96.425-1.47.648-.61.276-1.25.563-1.91.861-1.43.648-2.97,1.349-4.54,2.082-.67.319-1.35.627-2.03.946-.06.032-.13.063-.2.106q-.96.445-1.89.892c-2.29,1.1-4.43,2.136-6.23,3.039a1.025,1.025,0,0,1-.19.085c-.48.244-.93.478-1.36.69-.76.394-1.42.744-1.96,1.031-.56.308-.97.542-1.25.712a1.281,1.281,0,0,0-.38.3v.011l-.01.011c-.16-.043-.31-.1-.47-.149-.47-.16-.94-.33-1.41-.531-.37-.16-.74-.34-1.12-.521a23.1,23.1,0,0,1-3.5-2.2,25.422,25.422,0,0,1-2.93-2.614c-.57-.584-1.11-1.19-1.64-1.838a29.581,29.581,0,0,1-3.89-6.247c-.24-.52-.46-1.041-.66-1.572-.31-.765-.57-1.551-.8-2.327a24.42,24.42,0,0,1-.99-6.534v-.17C152.042,171.953,152.052,171.613,152.072,171.263Z" transform="translate(-122.252 -101.341)" fill="#394dff" stroke="#fff" stroke-width="3"/>
    <path id="Path_4870" data-name="Path 4870" d="M194.192,102.492a22.61,22.61,0,0,0-6.6.488,23.162,23.162,0,0,0-7.56,3.156,24.945,24.945,0,0,0-6.78,6.512c-.17.234-.32.468-.48.7-.13.191-.25.382-.37.573a26.464,26.464,0,0,0-3.62,9.583,29.069,29.069,0,0,0-.36,3.22q-.465-.24-.96-.447a22.4,22.4,0,0,0-4.47-1.466c.06-.807.17-1.6.3-2.4a26.772,26.772,0,0,1,3.62-9.572c.12-.192.25-.394.37-.585.16-.233.32-.467.48-.69a24.626,24.626,0,0,1,6.78-6.513,23.5,23.5,0,0,1,7.56-3.166,22.6,22.6,0,0,1,7.37-.414A22.323,22.323,0,0,1,194.192,102.492Z" transform="translate(-122.252 -101.341)" fill="#43e2b1" stroke="#fff" stroke-width="3"/>
    <path id="Path_4871" data-name="Path 4871" d="M190.8,249.075c.6.574,1.21,1.126,1.86,1.636a23.677,23.677,0,0,1-5.6,2.029,22.631,22.631,0,0,1-7.37.415,23.071,23.071,0,0,1-6.9-1.86,23.9,23.9,0,0,1-7-4.759,25.529,25.529,0,0,1-3.82-4.749,26.281,26.281,0,0,1-2.45-5.1,27.062,27.062,0,0,1-1.56-9.063c0-.563.02-1.136.06-1.7a25.3,25.3,0,0,0,2.94,3.432,23.989,23.989,0,0,0,7,4.76,22.806,22.806,0,0,0,14.26,1.445c.42-.1.82-.2,1.23-.308a26.836,26.836,0,0,0,1.08,3.962,26.375,26.375,0,0,0,2.45,5.111A25.531,25.531,0,0,0,190.8,249.075Z" transform="translate(-122.252 -101.341)" fill="#43e2b1" stroke="#fff" stroke-width="3"/>
    <path id="Path_4872" data-name="Path 4872" d="M183.882,235.125c-.14.043-.29.085-.43.128-.41.106-.81.212-1.23.308a22.806,22.806,0,0,1-14.26-1.445,23.989,23.989,0,0,1-7-4.76,25.3,25.3,0,0,1-2.94-3.432c-.31-.435-.6-.871-.88-1.317a25.13,25.13,0,0,1-1.23-2.22,1.9,1.9,0,0,1-.13-.245c-.19-.393-.37-.8-.54-1.2-.2-.478-.39-.956-.56-1.445a26.989,26.989,0,0,1-1.55-9.052c0-.786.03-1.572.1-2.359.49.181,1,.362,1.5.51a4.76,4.76,0,0,0,1.03.16h.16a10.655,10.655,0,0,0,2.51-.319c.53-.128,1.09-.276,1.67-.468a35,35,0,0,0,3.92-1.572c1.04-.489,2.11-1.03,3.2-1.636a27.147,27.147,0,0,0,1.32,12.568A26.412,26.412,0,0,0,171,222.44a25.13,25.13,0,0,0,3.82,4.749,24.1,24.1,0,0,0,7,4.759,22.3,22.3,0,0,0,4.23,1.4,12.594,12.594,0,0,1-1.34,1.307,2.655,2.655,0,0,1-.75.446C183.932,235.115,183.912,235.115,183.882,235.125Z" transform="translate(-122.252 -101.341)" fill="#43e2b1" stroke="#fff" stroke-width="3"/>
    <path id="Path_4873" data-name="Path 4873" d="M175.922,146.71v.01a22.452,22.452,0,0,0-4.68.532,23.112,23.112,0,0,0-7.55,3.166,24.923,24.923,0,0,0-6.79,6.5c-.16.233-.32.467-.47.7-.13.191-.25.382-.38.584a26.649,26.649,0,0,0-3.41,8.5h-.03c-1.48.361-2.89.765-4.22,1.211-1.2.4-2.32.85-3.34,1.307-.17.085-.35.17-.52.244a15,15,0,0,0-4.43,3,6.2,6.2,0,0,0-.42.489,4.178,4.178,0,0,0-.59,1.03q-.255.638-.48,1.307a27.392,27.392,0,0,1-1.85-3.655c-.05-.106-.09-.223-.14-.34-.26-.648-.49-1.306-.7-1.965a27.71,27.71,0,0,1-.98-4.271,28.852,28.852,0,0,1-.27-3.453v-.319a27,27,0,0,1,3.27-12.887c.23-.436.48-.85.74-1.264.12-.2.25-.393.37-.585l.48-.7a24.93,24.93,0,0,1,6.78-6.512,23.231,23.231,0,0,1,7.56-3.156,22.907,22.907,0,0,1,14.26,1.434,24.805,24.805,0,0,1,2.51,1.3v.01c.03.053.05.106.08.16a26.3,26.3,0,0,0,1.68,3.166A25.214,25.214,0,0,0,175.922,146.71Z" transform="translate(-122.252 -101.341)" fill="#43e2b1" stroke="#fff" stroke-width="3"/>
    <path id="Path_4874" data-name="Path 4874" d="M169.942,137.137c.21.606.45,1.19.7,1.775a24.805,24.805,0,0,0-2.51-1.3,22.907,22.907,0,0,0-14.26-1.434,23.231,23.231,0,0,0-7.56,3.156,24.93,24.93,0,0,0-6.78,6.512l-.48.7c-.12.192-.25.383-.37.585-.37-.245-.71-.478-1.04-.691-.74-.478-1.36-.86-1.85-1.126-.68-.393-1.11-.574-1.25-.531l-.03.01a.01.01,0,0,0-.01.011h-.01a26.707,26.707,0,0,1,3.52-9.02c.12-.2.25-.393.37-.584l.48-.7a24.764,24.764,0,0,1,6.78-6.5,23.276,23.276,0,0,1,7.56-3.166,22.631,22.631,0,0,1,7.37-.414,21.026,21.026,0,0,1,2.42.393,22.4,22.4,0,0,1,4.47,1.466q.5.207.96.447c-.02.456-.03.9-.03,1.359A26.985,26.985,0,0,0,169.942,137.137Z" transform="translate(-122.252 -101.341)" fill="#394dff" stroke="#fff" stroke-width="3"/>
    <path id="Path_4875" data-name="Path 4875" d="M137.822,189.685a27.117,27.117,0,0,1-.23-10.348,26.241,26.241,0,0,1,1.02-4.048q.225-.669.48-1.307a4.178,4.178,0,0,1,.59-1.03,6.2,6.2,0,0,1,.42-.489,15,15,0,0,1,4.43-3c.17-.074.35-.159.52-.244,1.02-.457,2.14-.9,3.34-1.307,1.33-.446,2.74-.85,4.22-1.211h.03c-.08.35-.15.712-.21,1.073a28.935,28.935,0,0,0-.36,3.485c-.02.35-.03.69-.03,1.03v.17a24.42,24.42,0,0,0,.99,6.534c.23.776.49,1.562.8,2.327.2.531.42,1.052.66,1.572a29.581,29.581,0,0,0,3.89,6.247c.53.648,1.07,1.254,1.64,1.838a25.422,25.422,0,0,0,2.93,2.614,23.1,23.1,0,0,0,3.5,2.2c.38.181.75.361,1.12.521.47.2.94.371,1.41.531.16.053.31.106.47.149a26.988,26.988,0,0,0-2.07,6.7c-.06.351-.11.7-.16,1.063-1.09.606-2.16,1.147-3.2,1.636a35,35,0,0,1-3.92,1.572c-.58.192-1.14.34-1.67.468a10.655,10.655,0,0,1-2.51.319h-.16a4.76,4.76,0,0,1-1.03-.16c-.5-.148-1.01-.329-1.5-.51-.41-.159-.81-.318-1.2-.5a23.907,23.907,0,0,1-7-4.76,25.1,25.1,0,0,1-3.82-4.749,26.312,26.312,0,0,1-2.46-5.1,25.067,25.067,0,0,1-.84-2.933h-.01C137.872,189.929,137.842,189.813,137.822,189.685Z" transform="translate(-122.252 -101.341)" fill="#43e2b1" stroke="#fff" stroke-width="3"/>
    <path id="Path_4876" data-name="Path 4876" d="M155.782,222.142a1.9,1.9,0,0,0,.13.245c-.53.159-1.07.3-1.61.414a22.6,22.6,0,0,1-7.37.414,23.037,23.037,0,0,1-6.89-1.859,23.822,23.822,0,0,1-7.01-4.76,25.05,25.05,0,0,1-3.81-4.749,26.008,26.008,0,0,1-2.46-5.1,27.206,27.206,0,0,1-1.16-13.642,26.694,26.694,0,0,1,3.04-8.6q.69.8,1.44,1.53c.49.478,1.01.945,1.54,1.381a9.844,9.844,0,0,0,1.95,1.222,16.3,16.3,0,0,0,2.12.829,20.562,20.562,0,0,0,2.21.573h.01a25.067,25.067,0,0,0,.84,2.933,26.312,26.312,0,0,0,2.46,5.1,25.1,25.1,0,0,0,3.82,4.749,23.907,23.907,0,0,0,7,4.76c.39.181.79.34,1.2.5-.07.787-.1,1.573-.1,2.359a26.989,26.989,0,0,0,1.55,9.052c.17.489.36.967.56,1.445A2.426,2.426,0,0,0,155.782,222.142Z" transform="translate(-122.252 -101.341)" fill="#43e2b1" stroke="#fff" stroke-width="3"/>
    <path id="Path_4877" data-name="Path 4877" d="M138.682,147.135c-.26.414-.51.828-.74,1.264a27,27,0,0,0-3.27,12.887v.319a28.852,28.852,0,0,0,.27,3.453,27.71,27.71,0,0,0,.98,4.271c.21.659.44,1.317.7,1.965.05.117.09.234.14.34a27.392,27.392,0,0,0,1.85,3.655,26.241,26.241,0,0,0-1.02,4.048,27.117,27.117,0,0,0,.23,10.348c.02.128.05.244.08.361a20.562,20.562,0,0,1-2.21-.573,16.3,16.3,0,0,1-2.12-.829,9.844,9.844,0,0,1-1.95-1.222c-.53-.436-1.05-.9-1.54-1.381s-.98-1-1.44-1.53a24.465,24.465,0,0,1-2.38-3.219,26.4,26.4,0,0,1-2.46-5.11,27.246,27.246,0,0,1-1.55-9.052,26.933,26.933,0,0,1,.39-4.579,26.64,26.64,0,0,1,3.62-9.583c.12-.192.25-.383.37-.574l.48-.7a24.949,24.949,0,0,1,6.78-6.513c.2-.128.4-.244.6-.372a.041.041,0,0,0-.01.032c0-.011.01-.021.02-.032a.01.01,0,0,1,.01-.011l.03-.01c.14-.043.57.138,1.25.531.49.266,1.11.648,1.85,1.126C137.972,146.657,138.312,146.89,138.682,147.135Z" transform="translate(-122.252 -101.341)" fill="#43e2b1" stroke="#fff" stroke-width="3"/>
    <path id="Path_4878" data-name="Path 4878" d="M200.112,168.861c.24.085.48.16.74.245a1,1,0,0,0,.16.053c.25.085.51.159.77.244,1.45.415,3.13.808,4.99,1.148,1.57.287,3.25.542,5.01.754,1.16.138,2.34.255,3.53.361,1.65.128,3.31.234,4.96.287,1.6.064,3.18.085,4.7.064,1.32-.021,2.58-.064,3.78-.138" transform="translate(-122.252 -101.341)" fill="#43e2b1" stroke="#fff" stroke-linecap="round" stroke-linejoin="round" stroke-width="3"/>
    <path id="Path_4879" data-name="Path 4879" d="M155.932,158.715a23.59,23.59,0,0,0-2.99,7.915" transform="translate(-122.252 -101.341)" fill="#43e2b1" stroke="#fff" stroke-linecap="round" stroke-linejoin="round" stroke-width="3"/>
    <path id="Path_4880" data-name="Path 4880" d="M152.942,166.63a16.762,16.762,0,0,0-.67,2.741c-.05.287-.08.585-.12.882-.04.33-.06.67-.08,1.01" transform="translate(-122.252 -101.341)" fill="#43e2b1" stroke="#fff" stroke-linecap="round" stroke-linejoin="round" stroke-width="3"/>
    <path id="Path_4881" data-name="Path 4881" d="M209.882,136.627c.82-.828,1.59-1.593,2.3-2.284.31-.308.61-.6.9-.871.73-.7,1.36-1.3,1.88-1.764.34-.3.62-.552.86-.743a3.344,3.344,0,0,1,.64-.447.037.037,0,0,1,.03-.01.035.035,0,0,1,.03-.011" transform="translate(-122.252 -101.341)" fill="#43e2b1" stroke="#fff" stroke-linecap="round" stroke-linejoin="round" stroke-width="3"/>
    <path id="Path_4882" data-name="Path 4882" d="M194.462,153.6a14.169,14.169,0,0,0-.01,1.965" transform="translate(-122.252 -101.341)" fill="#43e2b1" stroke="#fff" stroke-linecap="round" stroke-linejoin="round" stroke-width="3"/>
    <path id="Path_4883" data-name="Path 4883" d="M228.752,171.879c-.12.329-.25.669-.38,1.02-.15.414-.29.828-.44,1.253-.67,2.03-1.28,4.186-1.79,6.4-.07.34-.15.67-.22,1" transform="translate(-122.252 -101.341)" fill="#43e2b1" stroke="#fff" stroke-linecap="round" stroke-linejoin="round" stroke-width="3"/>
    <path id="Path_4884" data-name="Path 4884" d="M234.232,166.365c-.27.255-.54.52-.82.775-1.56,1.509-3.16,3.124-4.66,4.739" transform="translate(-122.252 -101.341)" fill="#43e2b1" stroke="#fff" stroke-linecap="round" stroke-linejoin="round" stroke-width="3"/>
    <path id="Path_4885" data-name="Path 4885" d="M208.822,190.928a18.662,18.662,0,0,1,.41,2.476c.01.042.01.085.02.116.18,1.509.37,3.528.55,5.886a1.035,1.035,0,0,1,.01.181c.25,3.2.47,6.842.62,10.39" transform="translate(-122.252 -101.341)" fill="#43e2b1" stroke="#fff" stroke-linecap="round" stroke-linejoin="round" stroke-width="3"/>
    <path id="Path_4886" data-name="Path 4886" d="M210.482,223.608a.379.379,0,0,1-.05.1" transform="translate(-122.252 -101.341)" fill="#43e2b1" stroke="#fff" stroke-linecap="round" stroke-linejoin="round" stroke-width="3"/>
    <path id="Path_4887" data-name="Path 4887" d="M210.482,211.029c.12,2.89.19,5.535.2,7.66v.808a33.648,33.648,0,0,1-.14,3.835,2.085,2.085,0,0,1-.06.266" transform="translate(-122.252 -101.341)" fill="#43e2b1" stroke="#fff" stroke-linecap="round" stroke-linejoin="round" stroke-width="3"/>
    <path id="Path_4888" data-name="Path 4888" d="M210.432,210.009c.02.33.03.67.05,1" transform="translate(-122.252 -101.341)" fill="#43e2b1" stroke="#fff" stroke-linecap="round" stroke-linejoin="round" stroke-width="3"/>
    <path id="Path_4889" data-name="Path 4889" d="M212.472,187.613c-.24.17-.47.351-.7.532a27.766,27.766,0,0,0-2.19,1.965c-.27.276-.52.542-.76.818" transform="translate(-122.252 -101.341)" fill="#43e2b1" stroke="#fff" stroke-linecap="round" stroke-linejoin="round" stroke-width="3"/>
    <path id="Path_4890" data-name="Path 4890" d="M225.922,181.547c-.47.1-.96.212-1.44.329l-.81.223a34.83,34.83,0,0,0-10.37,4.909c-.28.191-.56.393-.83.605" transform="translate(-122.252 -101.341)" fill="#43e2b1" stroke="#fff" stroke-linecap="round" stroke-linejoin="round" stroke-width="3"/>
    <path id="Path_4891" data-name="Path 4891" d="M208.822,190.928a29.363,29.363,0,0,0-2.33-2.337c-.09-.085-.19-.17-.29-.255a22.7,22.7,0,0,0-4.36-3.049" transform="translate(-122.252 -101.341)" fill="#43e2b1" stroke="#fff" stroke-linecap="round" stroke-linejoin="round" stroke-width="3"/>
    <path id="Path_4892" data-name="Path 4892" d="M246.662,128.68a8.778,8.778,0,0,0,.12-1c.03-.319.05-.627.05-.935,0-.191,0-.383-.01-.563" transform="translate(-122.252 -101.341)" fill="#43e2b1" stroke="#fff" stroke-linecap="round" stroke-linejoin="round" stroke-width="3"/>
    <path id="Path_4893" data-name="Path 4893" d="M261.732,160.15c-.11-.011-.22-.032-.33-.032a8.981,8.981,0,0,0-.94-.043,16.386,16.386,0,0,0-3.57.4c-.58.117-1.17.266-1.78.446s-1.25.393-1.88.627" transform="translate(-122.252 -101.341)" fill="#43e2b1" stroke="#fff" stroke-linecap="round" stroke-linejoin="round" stroke-width="3"/>
    <path id="Path_4895" data-name="Path 4895" d="M229.292,240.342c-.33.8-.69,1.583-1.09,2.337" transform="translate(-122.252 -101.341)" fill="#43e2b1" stroke="#fff" stroke-linecap="round" stroke-linejoin="round" stroke-width="3"/>
    <path id="Path_4896" data-name="Path 4896" d="M131.622,187.422c-.53-.436-1.05-.9-1.54-1.381s-.98-1-1.44-1.53" transform="translate(-122.252 -101.341)" fill="#43e2b1" stroke="#fff" stroke-linecap="round" stroke-linejoin="round" stroke-width="3"/>
    <path id="Path_4897" data-name="Path 4897" d="M131.622,187.422a9.844,9.844,0,0,0,1.95,1.222,16.3,16.3,0,0,0,2.12.829,20.562,20.562,0,0,0,2.21.573" transform="translate(-122.252 -101.341)" fill="#43e2b1" stroke="#fff" stroke-linecap="round" stroke-linejoin="round" stroke-width="3"/>
    <path id="Path_4898" data-name="Path 4898" d="M134.542,144.787c.14-.043.57.138,1.25.531.49.266,1.11.648,1.85,1.126.33.213.67.446,1.04.691" transform="translate(-122.252 -101.341)" fill="#43e2b1" stroke="#fff" stroke-linecap="round" stroke-linejoin="round" stroke-width="3"/>
    <path id="Path_4900" data-name="Path 4900" d="M134.482,144.84c0-.011.01-.021.02-.032" transform="translate(-122.252 -101.341)" fill="#43e2b1" stroke="#fff" stroke-linecap="round" stroke-linejoin="round" stroke-width="3"/>
    <path id="Path_4901" data-name="Path 4901" d="M183.882,235.125a.2.2,0,0,0-.08.011c-.22.021-.37-.106-.43-.361a.773.773,0,0,1-.02-.075" transform="translate(-122.252 -101.341)" fill="#43e2b1" stroke="#fff" stroke-linecap="round" stroke-linejoin="round" stroke-width="3"/>
    <path id="Path_4902" data-name="Path 4902" d="M134.672,161.6v-.319a27,27,0,0,1,3.27-12.887" transform="translate(-122.252 -101.341)" fill="#43e2b1" stroke="#fff" stroke-linecap="round" stroke-linejoin="round" stroke-width="3"/>
    <path id="Path_4903" data-name="Path 4903" d="M198.952,180.9a24.534,24.534,0,0,1-1.07,2.741" transform="translate(-122.252 -101.341)" fill="#43e2b1" stroke="#fff" stroke-linecap="round" stroke-linejoin="round" stroke-width="3"/>
    <path id="Path_4904" data-name="Path 4904" d="M199.552,178.859c-.1.414-.21.818-.34,1.222-.07.244-.14.478-.22.7" transform="translate(-122.252 -101.341)" fill="#43e2b1" stroke="#fff" stroke-linecap="round" stroke-linejoin="round" stroke-width="3"/>
    <path id="Path_4905" data-name="Path 4905" d="M169.482,197.005c-.01,0-.02-.01-.03-.01" transform="translate(-122.252 -101.341)" fill="#43e2b1" stroke="#fff" stroke-linecap="round" stroke-linejoin="round" stroke-width="3"/>
    <path id="Path_4906" data-name="Path 4906" d="M200.332,171.794c-.01-.34-.03-.659-.05-.978a15.682,15.682,0,0,0-.29-2.008" transform="translate(-122.252 -101.341)" fill="#43e2b1" stroke="#fff" stroke-linecap="round" stroke-linejoin="round" stroke-width="3"/>
    <path id="Path_4907" data-name="Path 4907" d="M199.552,178.859c.18-.723.33-1.477.45-2.242a28.731,28.731,0,0,0,.33-3.41" transform="translate(-122.252 -101.341)" fill="#43e2b1" stroke="#fff" stroke-linecap="round" stroke-linejoin="round" stroke-width="3"/>
    <path id="Path_4908" data-name="Path 4908" d="M152.042,172.293v.17a24.42,24.42,0,0,0,.99,6.534c.23.776.49,1.562.8,2.327.2.531.42,1.052.66,1.572a29.581,29.581,0,0,0,3.89,6.247c.53.648,1.07,1.254,1.64,1.838a25.422,25.422,0,0,0,2.93,2.614,23.1,23.1,0,0,0,3.5,2.2c.38.181.75.361,1.12.521.47.2.94.371,1.41.531" transform="translate(-122.252 -101.341)" fill="#394dff" stroke="#fff" stroke-linecap="round" stroke-linejoin="round" stroke-width="3"/>
    <path id="Path_4909" data-name="Path 4909" d="M216.522,130.5h.06" transform="translate(-122.252 -101.341)" fill="#43e2b1" stroke="#fff" stroke-linecap="round" stroke-linejoin="round" stroke-width="3"/>
    <path id="Path_4910" data-name="Path 4910" d="M242.222,160.861a.384.384,0,0,0,.01-.148.24.24,0,0,0-.27-.266" transform="translate(-122.252 -101.341)" fill="#43e2b1" stroke="#fff" stroke-linecap="round" stroke-linejoin="round" stroke-width="3"/>
    <path id="Path_4911" data-name="Path 4911" d="M197.852,183.64h.03" transform="translate(-122.252 -101.341)" fill="#43e2b1" stroke="#fff" stroke-linecap="round" stroke-linejoin="round" stroke-width="3"/>
    <path id="Path_4912" data-name="Path 4912" d="M169.462,196.973a1.281,1.281,0,0,1,.38-.3c.28-.17.69-.4,1.25-.712.54-.287,1.2-.637,1.96-1.031.43-.212.88-.446,1.36-.69a1.025,1.025,0,0,0,.19-.085c1.8-.9,3.94-1.944,6.23-3.039q.93-.445,1.89-.892c.07-.043.14-.074.2-.106.68-.319,1.36-.627,2.03-.946" transform="translate(-122.252 -101.341)" fill="#43e2b1" stroke="#fff" stroke-linecap="round" stroke-linejoin="round" stroke-width="3"/>
    <path id="Path_4913" data-name="Path 4913" d="M167.762,111.565a24.626,24.626,0,0,1,6.78-6.513,23.5,23.5,0,0,1,7.56-3.166,22.6,22.6,0,0,1,7.37-.414,22.323,22.323,0,0,1,4.72,1.02" transform="translate(-122.252 -101.341)" fill="#43e2b1" stroke="#fff" stroke-linecap="round" stroke-linejoin="round" stroke-width="3"/>
    <path id="Path_4914" data-name="Path 4914" d="M155.242,220.942a2.426,2.426,0,0,0,.54,1.2" transform="translate(-122.252 -101.341)" fill="#43e2b1" stroke="#fff" stroke-linecap="round" stroke-linejoin="round" stroke-width="3"/>
    <path id="Path_4915" data-name="Path 4915" d="M138.152,190.089a4.162,4.162,0,0,1-.33-.4" transform="translate(-122.252 -101.341)" fill="#43e2b1" stroke="#fff" stroke-linecap="round" stroke-linejoin="round" stroke-width="3"/>
    <path id="Path_4916" data-name="Path 4916" d="M186.052,233.351a12.594,12.594,0,0,1-1.34,1.307,2.655,2.655,0,0,1-.75.446" transform="translate(-122.252 -101.341)" fill="#43e2b1" stroke="#fff" stroke-linecap="round" stroke-linejoin="round" stroke-width="3"/>
    <path id="Path_4917" data-name="Path 4917" d="M152.642,166.705h-.03c-1.48.361-2.89.765-4.22,1.211-1.2.4-2.32.85-3.34,1.307-.17.085-.35.17-.52.244a15,15,0,0,0-4.43,3,6.2,6.2,0,0,0-.42.489,4.178,4.178,0,0,0-.59,1.03" transform="translate(-122.252 -101.341)" fill="#43e2b1" stroke="#fff" stroke-linecap="round" stroke-linejoin="round" stroke-width="3"/>
    <path id="Path_4918" data-name="Path 4918" d="M199.632,166.205c.06.287.11.563.16.829.09.457.14.893.18,1.286.01.17.02.34.02.488" transform="translate(-122.252 -101.341)" fill="#43e2b1" stroke="#fff" stroke-linecap="round" stroke-linejoin="round" stroke-width="3"/>
    <path id="Path_4919" data-name="Path 4919" d="M199.182,164.516c.11.329.2.659.28.978" transform="translate(-122.252 -101.341)" fill="#43e2b1" stroke="#fff" stroke-linecap="round" stroke-linejoin="round" stroke-width="3"/>
    <path id="Path_4920" data-name="Path 4920" d="M197.1,150.322a.217.217,0,0,0-.05-.032" transform="translate(-122.252 -101.341)" fill="#43e2b1" stroke="#fff" stroke-linecap="round" stroke-linejoin="round" stroke-width="3"/>
    <path id="Path_4921" data-name="Path 4921" d="M262.042,167.448c.18.16.35.319.52.489.03.032.06.053.09.085a21.364,21.364,0,0,1,1.89,2.178c.12.159.24.319.35.489.08.106.16.212.23.319a3.147,3.147,0,0,1,.21.35c.22.308.41.627.6.956" transform="translate(-122.252 -101.341)" fill="#43e2b1" stroke="#fff" stroke-linecap="round" stroke-linejoin="round" stroke-width="3"/>
    <path id="Path_4922" data-name="Path 4922" d="M267.2,161.5a19.512,19.512,0,0,0,.42-2.072c.04-.276.08-.552.11-.829.06-.478.09-.956.11-1.423a1.03,1.03,0,0,1,.01-.17" transform="translate(-122.252 -101.341)" fill="#43e2b1" stroke="#fff" stroke-linecap="round" stroke-linejoin="round" stroke-width="3"/>
    <path id="Path_4923" data-name="Path 4923" d="M246.252,130.7c.06-.244.12-.5.18-.744.06-.308.12-.6.17-.892a2.541,2.541,0,0,0,.06-.383" transform="translate(-122.252 -101.341)" fill="#43e2b1" stroke="#fff" stroke-linecap="round" stroke-linejoin="round" stroke-width="3"/>
    <path id="Path_4924" data-name="Path 4924" d="M246.122,121.01a27.139,27.139,0,0,1,.7,5.174" transform="translate(-122.252 -101.341)" fill="#43e2b1" stroke="#fff" stroke-linecap="round" stroke-linejoin="round" stroke-width="3"/>
    <path id="Path_4925" data-name="Path 4925" d="M207.142,107.655a24.338,24.338,0,0,1,3.05-2.327,23.5,23.5,0,0,1,7.56-3.166,22.6,22.6,0,0,1,7.37-.414,23.1,23.1,0,0,1,6.9,1.859,23.907,23.907,0,0,1,7,4.76,25.5,25.5,0,0,1,3.82,4.749,27.278,27.278,0,0,1,3.28,7.894" transform="translate(-122.252 -101.341)" fill="#43e2b1" stroke="#fff" stroke-linecap="round" stroke-linejoin="round" stroke-width="3"/>
    <path id="Path_4926" data-name="Path 4926" d="M229.342,231.715a22.213,22.213,0,0,1-3.85-.085,23.072,23.072,0,0,1-6.9-1.86,23.885,23.885,0,0,1-7-4.759c-.41-.4-.8-.808-1.19-1.243l-.01-.011" transform="translate(-122.252 -101.341)" fill="#43e2b1" stroke="#fff" stroke-linecap="round" stroke-linejoin="round" stroke-width="3"/>
    <path id="Path_4927" data-name="Path 4927" d="M229.382,231.715h-.04" transform="translate(-122.252 -101.341)" fill="#43e2b1" stroke="#fff" stroke-linecap="round" stroke-linejoin="round" stroke-width="3"/>
    <path id="Path_4928" data-name="Path 4928" d="M257.1,211.21c-.17-.011-.34-.032-.51-.043a22.913,22.913,0,0,1-4.06-.818" transform="translate(-122.252 -101.341)" fill="#43e2b1" stroke="#fff" stroke-linecap="round" stroke-linejoin="round" stroke-width="3"/>
    <path id="Path_4929" data-name="Path 4929" d="M282.332,178.986a26.99,26.99,0,0,1-3.18,20.813c-.12.192-.25.383-.37.574q-.24.366-.48.7a24.627,24.627,0,0,1-6.78,6.513,23.5,23.5,0,0,1-7.56,3.166,22.573,22.573,0,0,1-6.86.457" transform="translate(-122.252 -101.341)" fill="#43e2b1" stroke="#fff" stroke-linecap="round" stroke-linejoin="round" stroke-width="3"/>
    <path id="Path_4930" data-name="Path 4930" d="M216.582,130.5c-.01,0-.01.011-.01.021" transform="translate(-122.252 -101.341)" fill="#43e2b1" stroke="#fff" stroke-linecap="round" stroke-linejoin="round" stroke-width="3"/>
    <path id="Path_4931" data-name="Path 4931" d="M194.192,102.492c.26.021.51.042.77.074a22.67,22.67,0,0,1,6.89,1.849,24.081,24.081,0,0,1,5.29,3.24" transform="translate(-122.252 -101.341)" fill="#43e2b1" stroke="#fff" stroke-linecap="round" stroke-linejoin="round" stroke-width="3"/>
    <path id="Path_4932" data-name="Path 4932" d="M170.722,139.082c-.03-.054-.05-.107-.08-.16" transform="translate(-122.252 -101.341)" fill="#43e2b1" stroke="#fff" stroke-linecap="round" stroke-linejoin="round" stroke-width="3"/>
    <path id="Path_4933" data-name="Path 4933" d="M192.662,250.711c-.65-.51-1.26-1.062-1.86-1.636a25.531,25.531,0,0,1-3.82-4.749,26.375,26.375,0,0,1-2.45-5.111,26.836,26.836,0,0,1-1.08-3.962" transform="translate(-122.252 -101.341)" fill="#43e2b1" stroke="#fff" stroke-linecap="round" stroke-linejoin="round" stroke-width="3"/>
    <path id="Path_4934" data-name="Path 4934" d="M228.192,242.69c-.28.563-.6,1.094-.93,1.636-.12.191-.25.382-.37.573q-.24.367-.48.7a24.637,24.637,0,0,1-6.78,6.512,23.5,23.5,0,0,1-7.56,3.166,22.829,22.829,0,0,1-14.27-1.445,24.093,24.093,0,0,1-5.14-3.123" transform="translate(-122.252 -101.341)" fill="#43e2b1" stroke="#fff" stroke-linecap="round" stroke-linejoin="round" stroke-width="3"/>
    <path id="Path_4991" data-name="Path 4991" d="M0,0V.011" transform="translate(105.95 141.338)" fill="none" stroke="#fff" stroke-linecap="round" stroke-width="3"/>
    <path id="Path_4935" data-name="Path 4935" d="M128.642,184.511a24.465,24.465,0,0,1-2.38-3.219,26.4,26.4,0,0,1-2.46-5.11,27.246,27.246,0,0,1-1.55-9.052,26.933,26.933,0,0,1,.39-4.579,26.64,26.64,0,0,1,3.62-9.583c.12-.192.25-.383.37-.574l.48-.7" transform="translate(-122.252 -101.341)" fill="#43e2b1" stroke="#fff" stroke-linecap="round" stroke-linejoin="round" stroke-width="3"/>
    <path id="Path_4936" data-name="Path 4936" d="M162.992,124.813a22.4,22.4,0,0,1,4.47,1.466q.5.207.96.447" transform="translate(-122.252 -101.341)" fill="#43e2b1" stroke="#fff" stroke-linecap="round" stroke-linejoin="round" stroke-width="3"/>
    <path id="Path_4937" data-name="Path 4937" d="M155.912,222.387c-.53.159-1.07.3-1.61.414a22.6,22.6,0,0,1-7.37.414,23.037,23.037,0,0,1-6.89-1.859,23.822,23.822,0,0,1-7.01-4.76,25.05,25.05,0,0,1-3.81-4.749,26.008,26.008,0,0,1-2.46-5.1,27.206,27.206,0,0,1-1.16-13.642,26.694,26.694,0,0,1,3.04-8.6" transform="translate(-122.252 -101.341)" fill="#43e2b1" stroke="#fff" stroke-linecap="round" stroke-linejoin="round" stroke-width="3"/>
    <path id="Path_4938" data-name="Path 4938" d="M192.672,250.7l-.01.011a23.677,23.677,0,0,1-5.6,2.029,22.631,22.631,0,0,1-7.37.415,23.071,23.071,0,0,1-6.9-1.86,23.9,23.9,0,0,1-7-4.759,25.529,25.529,0,0,1-3.82-4.749,26.281,26.281,0,0,1-2.45-5.1,27.062,27.062,0,0,1-1.56-9.063c0-.563.02-1.136.06-1.7" transform="translate(-122.252 -101.341)" fill="#43e2b1" stroke="#fff" stroke-linecap="round" stroke-linejoin="round" stroke-width="3"/>
    <path id="Path_4939" data-name="Path 4939" d="M138.682,147.135c.12-.2.25-.393.37-.585l.48-.7" transform="translate(-122.252 -101.341)" fill="#43e2b1" stroke="#fff" stroke-linecap="round" stroke-linejoin="round" stroke-width="3"/>
    <path id="Path_4940" data-name="Path 4940" d="M137.942,148.4c.23-.436.48-.85.74-1.264" transform="translate(-122.252 -101.341)" fill="#43e2b1" stroke="#fff" stroke-linecap="round" stroke-linejoin="round" stroke-width="3"/>
    <path id="Path_4941" data-name="Path 4941" d="M197.882,183.64a.04.04,0,0,0-.01.032" transform="translate(-122.252 -101.341)" fill="#43e2b1" stroke="#fff" stroke-linecap="round" stroke-linejoin="round" stroke-width="3"/>
    <path id="Path_4942" data-name="Path 4942" d="M169.452,196.995c-.16-.043-.31-.1-.47-.149" transform="translate(-122.252 -101.341)" fill="#43e2b1" stroke="#fff" stroke-linecap="round" stroke-linejoin="round" stroke-width="3"/>
    <path id="Path_4943" data-name="Path 4943" d="M231.222,134.258c.05.032.11.075.16.106" transform="translate(-122.252 -101.341)" fill="#43e2b1" stroke="#fff" stroke-linecap="round" stroke-linejoin="round" stroke-width="3"/>
    <path id="Path_4944" data-name="Path 4944" d="M272.512,149.079a24.69,24.69,0,0,1,3.3,2.688,25.082,25.082,0,0,1,3.81,4.749,26.4,26.4,0,0,1,2.46,5.11,27.207,27.207,0,0,1,1.16,13.642,26.092,26.092,0,0,1-.91,3.718" transform="translate(-122.252 -101.341)" fill="#394dff" stroke="#fff" stroke-linecap="round" stroke-linejoin="round" stroke-width="3"/>
    <path id="Path_4945" data-name="Path 4945" d="M265.842,145.924a24.745,24.745,0,0,1,2.96,1.083,22.609,22.609,0,0,1,3.71,2.072" transform="translate(-122.252 -101.341)" fill="#43e2b1" stroke="#fff" stroke-linecap="round" stroke-linejoin="round" stroke-width="3"/>
    <path id="Path_4992" data-name="Path 4992" d="M0,.011.01,0" transform="translate(47.2 95.643)" fill="none" stroke="#fff" stroke-linecap="round" stroke-width="3"/>
    <path id="Path_4946" data-name="Path 4946" d="M257.1,211.21a27.223,27.223,0,0,1,.4,11.1,26.6,26.6,0,0,1-3.62,9.573c-.12.191-.25.382-.37.573-.16.245-.32.468-.48.7a24.637,24.637,0,0,1-6.78,6.512,23.5,23.5,0,0,1-7.56,3.166,23.2,23.2,0,0,1-7.37.415,22.485,22.485,0,0,1-3.12-.563h-.01" transform="translate(-122.252 -101.341)" fill="#394dff" stroke="#fff" stroke-linecap="round" stroke-linejoin="round" stroke-width="3"/>
    <path id="Path_4947" data-name="Path 4947" d="M162.992,124.813c.06-.807.17-1.6.3-2.4a26.772,26.772,0,0,1,3.62-9.572c.12-.192.25-.394.37-.585.16-.233.32-.467.48-.69" transform="translate(-122.252 -101.341)" fill="#43e2b1" stroke="#fff" stroke-linecap="round" stroke-linejoin="round" stroke-width="3"/>
    <path id="Path_4948" data-name="Path 4948" d="M246.122,121.01a22.557,22.557,0,0,1,4.79,0,23.008,23.008,0,0,1,6.89,1.859,23.838,23.838,0,0,1,7,4.76,25.1,25.1,0,0,1,3.82,4.749,26.377,26.377,0,0,1,2.46,5.11,26.989,26.989,0,0,1,1.55,9.052c0,.85-.04,1.689-.12,2.539" transform="translate(-122.252 -101.341)" fill="#43e2b1" stroke="#fff" stroke-linecap="round" stroke-linejoin="round" stroke-width="3"/>
    <path id="Path_4949" data-name="Path 4949" d="M265.972,146.274q.18.447.33.893a26.994,26.994,0,0,1,1.56,9.052c0,.265-.01.531-.01.786" transform="translate(-122.252 -101.341)" fill="#43e2b1" stroke="#fff" stroke-linecap="round" stroke-linejoin="round" stroke-width="3"/>
    <path id="Path_4950" data-name="Path 4950" d="M265.832,145.924c.05.116.09.233.14.35" transform="translate(-122.252 -101.341)" fill="#43e2b1" stroke="#fff" stroke-linecap="round" stroke-linejoin="round" stroke-width="3"/>
    <path id="Path_4951" data-name="Path 4951" d="M138.612,175.289a27.392,27.392,0,0,1-1.85-3.655c-.05-.106-.09-.223-.14-.34-.26-.648-.49-1.306-.7-1.965a27.71,27.71,0,0,1-.98-4.271,28.852,28.852,0,0,1-.27-3.453" transform="translate(-122.252 -101.341)" fill="#43e2b1" stroke="#fff" stroke-linecap="round" stroke-linejoin="round" stroke-width="3"/>
    <path id="Path_4952" data-name="Path 4952" d="M229.352,231.7l-.01.011a8.922,8.922,0,0,1-1.14,1.19,8.737,8.737,0,0,1-1.07.828c-.19.138-.4.266-.61.393a14.462,14.462,0,0,1-2.04,1.01,19.6,19.6,0,0,1-3.62,1.052,28.429,28.429,0,0,1-5.42.467c-.92,0-1.86-.042-2.81-.127a39.647,39.647,0,0,1-8.09-1.615c-.87-.277-1.73-.574-2.57-.9-.35-.139-.7-.277-1.05-.425-.72-.308-1.42-.627-2.11-.967" transform="translate(-122.252 -101.341)" fill="#43e2b1" stroke="#fff" stroke-linecap="round" stroke-linejoin="round" stroke-width="3"/>
    <path id="Path_4953" data-name="Path 4953" d="M197.392,184.022c.08-.106.16-.223.25-.35.07-.107.15-.234.22-.362a12.429,12.429,0,0,0,.91-1.933l.18-.478a.816.816,0,0,1,.04-.117c.08-.223.15-.457.22-.7.13-.393.24-.8.34-1.222" transform="translate(-122.252 -101.341)" fill="#43e2b1" stroke="#fff" stroke-linecap="round" stroke-linejoin="round" stroke-width="3"/>
    <path id="Path_4954" data-name="Path 4954" d="M184.952,189.175c1.57-.733,3.11-1.434,4.54-2.082.66-.3,1.3-.585,1.91-.861.51-.223,1-.435,1.47-.648.54-.234,1.04-.446,1.5-.648,1.19-.5,2.11-.871,2.7-1.084.17-.063.32-.117.44-.148.05-.011.09-.022.13-.032a.456.456,0,0,1,.21-.032" transform="translate(-122.252 -101.341)" fill="#43e2b1" stroke="#fff" stroke-linecap="round" stroke-linejoin="round" stroke-width="3"/>
    <path id="Path_4955" data-name="Path 4955" d="M194.462,153.6a3.15,3.15,0,0,1,.53-.839c.17-.213.37-.478.62-.776.39-.478.87-1.052,1.44-1.7.58-.669,1.25-1.423,1.99-2.242l1.85-2.029c.83-.9,1.71-1.838,2.61-2.794,1.03-1.094,2.09-2.21,3.14-3.293l.8-.819c.84-.871,1.66-1.7,2.44-2.486" transform="translate(-122.252 -101.341)" fill="#43e2b1" stroke="#fff" stroke-linecap="round" stroke-linejoin="round" stroke-width="3"/>
    <path id="Path_4956" data-name="Path 4956" d="M210.332,223.693l.01.011.05.053" transform="translate(-122.252 -101.341)" fill="#43e2b1" stroke="#fff" stroke-linecap="round" stroke-linejoin="round" stroke-width="3"/>
    <path id="Path_4957" data-name="Path 4957" d="M251.852,209.425c-.05.4-.1.8-.17,1.19,0,.021-.01.053-.01.074a26.706,26.706,0,0,1-3.62,9.573c-.12.2-.25.393-.38.584-.15.234-.31.468-.47.7a24.886,24.886,0,0,1-6.78,6.5,23.254,23.254,0,0,1-7.56,3.166,22.974,22.974,0,0,1-3.48.5" transform="translate(-122.252 -101.341)" fill="#43e2b1" stroke="#fff" stroke-linecap="round" stroke-linejoin="round" stroke-width="3"/>
    <path id="Path_4958" data-name="Path 4958" d="M251.852,209.425a3.716,3.716,0,0,0,0-.818c0-.032-.01-.064-.01-.1s-.01-.1-.02-.138c-.02-.138-.05-.276-.08-.425a16.086,16.086,0,0,0-1.91-4.3c-.04-.074-.08-.138-.12-.212a50.319,50.319,0,0,0-5.05-6.8c-.17-.2-.34-.393-.51-.6-.51-.573-1.04-1.147-1.58-1.731a77.881,77.881,0,0,0-6.01-5.737c-.12-.107-.23-.2-.34-.3a.219.219,0,0,1-.06-.042c-1.57-1.329-3.12-2.518-4.6-3.538-.21-.149-.41-.287-.62-.415-.55-.372-1.09-.712-1.62-1.03a22.172,22.172,0,0,0-3.4-1.7" transform="translate(-122.252 -101.341)" fill="#43e2b1" stroke="#fff" stroke-linecap="round" stroke-linejoin="round" stroke-width="3"/>
    <path id="Path_4959" data-name="Path 4959" d="M261.732,160.15a23.19,23.19,0,0,1,5.47,1.349v.01c.38.139.76.287,1.13.457a24.34,24.34,0,0,1,7,4.76,25.571,25.571,0,0,1,3.82,4.76,26.587,26.587,0,0,1,2.46,5.1c.27.787.52,1.583.72,2.4" transform="translate(-122.252 -101.341)" fill="#43e2b1" stroke="#fff" stroke-linecap="round" stroke-linejoin="round" stroke-width="3"/>
    <path id="Path_4960" data-name="Path 4960" d="M207.142,107.655c.59.478,1.16.988,1.71,1.519a25.131,25.131,0,0,1,3.82,4.749,26.413,26.413,0,0,1,2.46,5.111,26.983,26.983,0,0,1,1.55,9.051c0,.808-.03,1.6-.1,2.412" transform="translate(-122.252 -101.341)" fill="#1d34ff" stroke="#fff" stroke-linecap="round" stroke-linejoin="round" stroke-width="3"/>
    <path id="Path_4961" data-name="Path 4961" d="M175.922,146.71a25.214,25.214,0,0,1-3.52-4.462,26.3,26.3,0,0,1-1.68-3.166" transform="translate(-122.252 -101.341)" fill="#43e2b1" stroke="#fff" stroke-linecap="round" stroke-linejoin="round" stroke-width="3"/>
    <path id="Path_4962" data-name="Path 4962" d="M170.642,138.912c-.25-.585-.49-1.169-.7-1.775a26.985,26.985,0,0,1-1.55-9.052c0-.456.01-.9.03-1.359a29.069,29.069,0,0,1,.36-3.22,26.464,26.464,0,0,1,3.62-9.583c.12-.191.24-.382.37-.573.16-.234.31-.468.48-.7" transform="translate(-122.252 -101.341)" fill="#394dff" stroke="#fff" stroke-linecap="round" stroke-linejoin="round" stroke-width="3"/>
    <path id="Path_4963" data-name="Path 4963" d="M229.292,240.342a10.216,10.216,0,0,0,.57-3.751c0-.212,0-.425-.01-.637a28.725,28.725,0,0,0-.48-4.239" transform="translate(-122.252 -101.341)" fill="#43e2b1" stroke="#fff" stroke-linecap="round" stroke-linejoin="round" stroke-width="3"/>
    <path id="Path_4964" data-name="Path 4964" d="M127.112,151.693a24.949,24.949,0,0,1,6.78-6.513c.2-.128.4-.244.6-.372h.01a.01.01,0,0,1,.01-.011" transform="translate(-122.252 -101.341)" fill="#43e2b1" stroke="#fff" stroke-linecap="round" stroke-linejoin="round" stroke-width="3"/>
    <path id="Path_4965" data-name="Path 4965" d="M134.482,144.84a.041.041,0,0,1,.01-.032,26.707,26.707,0,0,1,3.52-9.02c.12-.2.25-.393.37-.584l.48-.7" transform="translate(-122.252 -101.341)" fill="#43e2b1" stroke="#fff" stroke-linecap="round" stroke-linejoin="round" stroke-width="3"/>
    <path id="Path_4966" data-name="Path 4966" d="M183.962,235.1c-.03.011-.05.011-.08.021-.14.043-.29.085-.43.128-.41.106-.81.212-1.23.308a22.806,22.806,0,0,1-14.26-1.445,23.989,23.989,0,0,1-7-4.76,25.3,25.3,0,0,1-2.94-3.432" transform="translate(-122.252 -101.341)" fill="#43e2b1" stroke="#fff" stroke-linecap="round" stroke-linejoin="round" stroke-width="3"/>
    <path id="Path_4967" data-name="Path 4967" d="M158.022,225.924c-.31-.435-.6-.871-.88-1.317a25.13,25.13,0,0,1-1.23-2.22,1.9,1.9,0,0,1-.13-.245" transform="translate(-122.252 -101.341)" fill="#43e2b1" stroke="#fff" stroke-linecap="round" stroke-linejoin="round" stroke-width="3"/>
    <path id="Path_4968" data-name="Path 4968" d="M155.782,222.142c-.19-.393-.37-.8-.54-1.2-.2-.478-.39-.956-.56-1.445a26.989,26.989,0,0,1-1.55-9.052c0-.786.03-1.572.1-2.359" transform="translate(-122.252 -101.341)" fill="#43e2b1" stroke="#fff" stroke-linecap="round" stroke-linejoin="round" stroke-width="3"/>
    <path id="Path_4969" data-name="Path 4969" d="M139.532,145.849a24.93,24.93,0,0,1,6.78-6.512,23.231,23.231,0,0,1,7.56-3.156,22.907,22.907,0,0,1,14.26,1.434,24.805,24.805,0,0,1,2.51,1.3v.01h.01" transform="translate(-122.252 -101.341)" fill="#43e2b1" stroke="#fff" stroke-linecap="round" stroke-linejoin="round" stroke-width="3"/>
    <path id="Path_4970" data-name="Path 4970" d="M154.732,208.6c-.5-.148-1.01-.329-1.5-.51-.41-.159-.81-.318-1.2-.5a23.907,23.907,0,0,1-7-4.76,25.1,25.1,0,0,1-3.82-4.749,26.312,26.312,0,0,1-2.46-5.1,25.067,25.067,0,0,1-.84-2.933h-.01c-.03-.117-.06-.233-.08-.361a27.117,27.117,0,0,1-.23-10.348,26.241,26.241,0,0,1,1.02-4.048q.225-.669.48-1.307" transform="translate(-122.252 -101.341)" fill="#43e2b1" stroke="#fff" stroke-linecap="round" stroke-linejoin="round" stroke-width="3"/>
    <path id="Path_4971" data-name="Path 4971" d="M154.732,208.6a4.76,4.76,0,0,0,1.03.16h.16a10.655,10.655,0,0,0,2.51-.319c.53-.128,1.09-.276,1.67-.468a35,35,0,0,0,3.92-1.572c1.04-.489,2.11-1.03,3.2-1.636" transform="translate(-122.252 -101.341)" fill="#43e2b1" stroke="#fff" stroke-linecap="round" stroke-linejoin="round" stroke-width="3"/>
    <path id="Path_4972" data-name="Path 4972" d="M156.9,156.92a24.923,24.923,0,0,1,6.79-6.5,23.112,23.112,0,0,1,7.55-3.166,22.452,22.452,0,0,1,4.68-.532,20.875,20.875,0,0,1,2.69.117,22.991,22.991,0,0,1,6.9,1.86,23.884,23.884,0,0,1,7,4.759,22.34,22.34,0,0,1,1.93,2.125,24.105,24.105,0,0,1,1.89,2.624,23.575,23.575,0,0,1,1.43,2.635.342.342,0,0,1,.06.138,21.373,21.373,0,0,1,.97,2.327l.03.1q.195.557.36,1.115c.1.329.19.648.28.978.06.233.12.478.17.711a23.836,23.836,0,0,1,.48,2.656,25.938,25.938,0,0,1,.22,2.933c.01.191.01.372.01.563,0,.287-.01.563-.01.85" transform="translate(-122.252 -101.341)" fill="#394dff" stroke="#fff" stroke-linecap="round" stroke-linejoin="round" stroke-width="3"/>
    <path id="Path_4973" data-name="Path 4973" d="M152.042,172.293c0-.34.01-.68.03-1.03a28.935,28.935,0,0,1,.36-3.485c.06-.361.13-.723.21-1.073a26.649,26.649,0,0,1,3.41-8.5c.13-.2.25-.393.38-.584.15-.234.31-.468.47-.7" transform="translate(-122.252 -101.341)" fill="#43e2b1" stroke="#fff" stroke-linecap="round" stroke-linejoin="round" stroke-width="3"/>
    <path id="Path_4974" data-name="Path 4974" d="M169.482,197.005c-.01-.01-.02-.01-.02-.021v-.011" transform="translate(-122.252 -101.341)" fill="#43e2b1" stroke="#fff" stroke-linecap="round" stroke-linejoin="round" stroke-width="3"/>
    <path id="Path_4975" data-name="Path 4975" d="M216.582,130.5a22.8,22.8,0,0,1,4.34.043,23.07,23.07,0,0,1,6.9,1.859,23.691,23.691,0,0,1,3.4,1.859" transform="translate(-122.252 -101.341)" fill="#43e2b1" stroke="#fff" stroke-linecap="round" stroke-linejoin="round" stroke-width="3"/>
    <path id="Path_4976" data-name="Path 4976" d="M231.382,134.364a24.446,24.446,0,0,1,3.44,2.795,25.5,25.5,0,0,1,3.82,4.749,26.336,26.336,0,0,1,2.45,5.11,27,27,0,0,1,1.56,9.052,27.3,27.3,0,0,1-.35,4.324" transform="translate(-122.252 -101.341)" fill="#43e2b1" stroke="#fff" stroke-linecap="round" stroke-linejoin="round" stroke-width="3"/>
    <path id="Path_4977" data-name="Path 4977" d="M216.522,130.5c.04,0,.05.011.05.053" transform="translate(-122.252 -101.341)" fill="#43e2b1" stroke="#fff" stroke-linecap="round" stroke-linejoin="round" stroke-width="3"/>
    <path id="Path_4978" data-name="Path 4978" d="M197.882,183.64a25.05,25.05,0,0,1,2.57.967c.24.106.47.212.7.329" transform="translate(-122.252 -101.341)" fill="#43e2b1" stroke="#fff" stroke-linecap="round" stroke-linejoin="round" stroke-width="3"/>
    <path id="Path_4979" data-name="Path 4979" d="M210.422,223.715a.081.081,0,0,0-.02.042" transform="translate(-122.252 -101.341)" fill="#43e2b1" stroke="#fff" stroke-linecap="round" stroke-linejoin="round" stroke-width="3"/>
    <path id="Path_4980" data-name="Path 4980" d="M210.4,223.757v.011a24.958,24.958,0,0,1-6.76,6.459,23.442,23.442,0,0,1-4.84,2.37v.01a21.982,21.982,0,0,1-2.72.786,22.9,22.9,0,0,1-7.37.415,20.648,20.648,0,0,1-2.66-.457,22.3,22.3,0,0,1-4.23-1.4,24.1,24.1,0,0,1-7-4.759A25.13,25.13,0,0,1,171,222.44a26.412,26.412,0,0,1-2.46-5.111,27.147,27.147,0,0,1-1.32-12.568c.05-.361.1-.712.16-1.063a26.988,26.988,0,0,1,2.07-6.7" transform="translate(-122.252 -101.341)" fill="#43e2b1" stroke="#fff" stroke-linecap="round" stroke-linejoin="round" stroke-width="3"/>
    <path id="Path_4981" data-name="Path 4981" d="M197.852,183.64c.02,0,.02.01.02.032" transform="translate(-122.252 -101.341)" fill="#43e2b1" stroke="#fff" stroke-linecap="round" stroke-linejoin="round" stroke-width="3"/>
    <path id="Path_4982" data-name="Path 4982" d="M201.842,185.287q-.345-.192-.69-.351c-.15-.064-.29-.127-.43-.181a10.964,10.964,0,0,0-1.11-.414,6.264,6.264,0,0,0-2.22-.319" transform="translate(-122.252 -101.341)" fill="#43e2b1" stroke="#fff" stroke-linecap="round" stroke-linejoin="round" stroke-width="3"/>
    <path id="Path_4983" data-name="Path 4983" d="M210.432,223.7s0,.011-.01.011c-.02.032-.05.032-.08-.011" transform="translate(-122.252 -101.341)" fill="#43e2b1" stroke="#fff" stroke-linecap="round" stroke-linejoin="round" stroke-width="3"/>
    <path id="Path_4984" data-name="Path 4984" d="M241.862,160.458c.03,0,.07-.011.1-.011a1.88,1.88,0,0,1,.34-.042,21.958,21.958,0,0,1,5.54-.1,23.02,23.02,0,0,1,5.39,1.254q.765.27,1.5.6a23.857,23.857,0,0,1,7,4.76,23.1,23.1,0,0,1,2.81,3.272,3.644,3.644,0,0,1,.35.489,6.4,6.4,0,0,1,.44.669,3.043,3.043,0,0,1,.22.319c.13.212.26.425.38.637" transform="translate(-122.252 -101.341)" fill="#394dff" stroke="#fff" stroke-linecap="round" stroke-linejoin="round" stroke-width="3"/>
    <path id="Path_4985" data-name="Path 4985" d="M266.272,198.758c-.23.425-.47.829-.72,1.233-.12.2-.24.393-.37.584l-.48.7a24.745,24.745,0,0,1-6.78,6.5,23.411,23.411,0,0,1-5.39,2.571c-.28.1-.57.181-.85.266" transform="translate(-122.252 -101.341)" fill="#43e2b1" stroke="#fff" stroke-linecap="round" stroke-linejoin="round" stroke-width="3"/>
    <path id="Path_4986" data-name="Path 4986" d="M241.862,160.458a2.249,2.249,0,0,0-.4.127c-.12.053-.27.128-.43.213a17.234,17.234,0,0,0-1.84,1.264c-1.37,1.052-3.09,2.539-4.96,4.3" transform="translate(-122.252 -101.341)" fill="#43e2b1" stroke="#fff" stroke-linecap="round" stroke-linejoin="round" stroke-width="3"/>
    <path id="Path_4987" data-name="Path 4987" d="M265.932,172.314l.24.415c.13.233.26.478.39.722a25.417,25.417,0,0,1,1.07,2.391,27.819,27.819,0,0,1,1.77,8.425,27.5,27.5,0,0,1-.06,4.058c0,.053-.01.106-.01.16a27.353,27.353,0,0,1-1.66,7.256,23.317,23.317,0,0,1-1.4,3.017" transform="translate(-122.252 -101.341)" fill="#394dff" stroke="#fff" stroke-linecap="round" stroke-linejoin="round" stroke-width="3"/>
    <path id="Path_4988" data-name="Path 4988" d="M251.682,210.073a2.428,2.428,0,0,0,.17-.648" transform="translate(-122.252 -101.341)" fill="#43e2b1" stroke="#fff" stroke-linecap="round" stroke-linejoin="round" stroke-width="3"/>
    <path id="Path_4989" data-name="Path 4989" d="M231.222,134.258a23.367,23.367,0,0,1,7.54-3.155,22.939,22.939,0,0,1,7.37-.415c.04,0,.08.011.12.011a23.274,23.274,0,0,1,6.78,1.849,24.1,24.1,0,0,1,7,4.759,25.53,25.53,0,0,1,3.82,4.749,27.249,27.249,0,0,1,1.98,3.868" transform="translate(-122.252 -101.341)" fill="#43e2b1" stroke="#fff" stroke-linecap="round" stroke-linejoin="round" stroke-width="3"/>
    <path id="Path_4990" data-name="Path 4990" d="M173.252,112.648a24.945,24.945,0,0,1,6.78-6.512,23.162,23.162,0,0,1,7.56-3.156,22.61,22.61,0,0,1,6.6-.488" transform="translate(-122.252 -101.341)" fill="#1d34ff" stroke="#fff" stroke-linecap="round" stroke-linejoin="round" stroke-width="3"/>
    <g id="Group_1658" data-name="Group 1658" transform="translate(192.544 -5.765)" style="isolation: isolate">
      <path id="Path_4993" data-name="Path 4993" d="M80.344-84.66c-1.826-1.328-5.644-1.66-7.8-1.66C62.416-86.32,56.108-82,50.464-74.368H50.3a32.418,32.418,0,0,0,.5-5.644,14.322,14.322,0,0,0-.664-4.648H14.442a34.562,34.562,0,0,1,.332,5.146,47.932,47.932,0,0,1-.332,6.64L2.822,0H39.01l5.312-33.2c1.494-9.794,5.644-19.754,17.264-19.754a20.618,20.618,0,0,1,9.96,2.49h1.826Zm48.14,54.116c20.418,0,32.536-8.3,32.536-27.39,0-20.75-17.264-28.22-35.026-28.22-30.212,0-52.788,22.078-52.788,53.452C73.206-9.3,90.3,2.324,112.88,2.324c10.956,0,25.73-.5,42.5-12.782L144.918-28.22a43.927,43.927,0,0,1-21.912,5.976c-8.3,0-15.272-3.154-16.268-11.786C115.7-31.54,120.682-30.544,128.484-30.544ZM109.062-51.128c1.328-7.8,9.3-15.106,15.6-15.106,4.98,0,8.632,2.324,8.632,6.806,0,7.3-5.478,9.3-13.612,9.3A66.111,66.111,0,0,1,109.062-51.128ZM257.466,0a28.473,28.473,0,0,1-.5-5.81,45.385,45.385,0,0,1,.5-6.142L268.92-84.66H232.9c-.332,2.324-.5,4.648-.664,6.972-4.648-6.474-14.442-8.632-22.078-8.632-29.05,0-45.318,26.892-45.318,53.618,0,19.422,10.79,34.694,31.374,34.694,9.96,0,20.252-3.486,27.224-10.956A16.722,16.722,0,0,0,223.1-5.81,20.2,20.2,0,0,0,223.768,0ZM227.752-45.982c0,8.8-5.81,17.6-15.106,17.6-6.64,0-10.624-4.814-10.624-11.288,0-8.632,5.81-17.43,15.106-17.43C223.768-57.1,227.752-52.456,227.752-45.982Zm123.172-33.7c-8.466-4.98-17.1-6.64-26.892-6.64-30.71,0-52.456,22.078-52.456,52.456,0,22.742,16.6,35.856,38.346,35.856,9.3,0,23.24-2.324,30.876-7.8l-1.826-28.552a33,33,0,0,1-17.762,5.976c-7.47,0-13.446-3.154-13.446-11.288,0-9.96,7.138-17.43,17.1-17.43A23.194,23.194,0,0,1,340.8-51.128Zm52.954-12.782a45.551,45.551,0,0,0,.664-7.47,23.1,23.1,0,0,0-.5-5.478H368.022a34.562,34.562,0,0,1,.332,5.146,41.257,41.257,0,0,1-.5,7.3l-1.328,8.3H355.406L351.09-57.1h11.122C360.22-44.986,356.9-32.038,356.9-19.588c0,16.1,9.794,21.58,24.734,21.58A98.96,98.96,0,0,0,405.372-.83l2.988-28.884a28,28,0,0,1-8.3,1.328c-2.988,0-5.478-.5-5.478-3.984,0-7.636,2.49-16.932,3.818-24.734H415l4.482-27.556H402.716ZM509.62-50.63c0-24.236-18.26-35.69-40.836-35.69-31.54,0-54.946,20.252-54.946,52.622,0,24.236,18.426,35.69,41,35.69C486.38,1.992,509.62-18.26,509.62-50.63Zm-36.354,4.15c0,7.968-4.316,18.094-13.612,18.094-6.474,0-9.13-4.648-9.13-10.624,0-7.968,4.15-18.094,13.612-18.094C470.444-57.1,473.266-52.456,473.266-46.48ZM589.134-84.66c-1.826-1.328-5.644-1.66-7.8-1.66-10.126,0-16.434,4.316-22.078,11.952h-.166a32.415,32.415,0,0,0,.5-5.644,14.322,14.322,0,0,0-.664-4.648h-35.69a34.565,34.565,0,0,1,.332,5.146,47.936,47.936,0,0,1-.332,6.64L511.612,0H547.8l5.312-33.2c1.494-9.794,5.644-19.754,17.264-19.754a20.618,20.618,0,0,1,9.96,2.49h1.826Z" transform="translate(0.456 132.765)" fill="#394dff" stroke="#fff" stroke-linecap="round" stroke-width="2"/>
    </g>
  </g>
</svg>
