<svg width="689" height="666" viewBox="0 0 689 666" fill="none" xmlns="http://www.w3.org/2000/svg">
<path fill-rule="evenodd" clip-rule="evenodd" d="M380.28 41.812H508.13L584.09 173.402L520.17 284.112L380.28 41.812ZM380.28 304.982L432.16 215.121L484.04 304.982H380.28ZM420.11 457.422H268.17L204.25 346.712H484.03L420.11 457.422ZM104.19 173.402L180.16 41.812H308L168.11 284.112L104.19 173.402ZM292.26 152.531L344.14 62.681L396.02 152.531H292.26ZM308 304.982H204.25L256.12 215.121L308 304.982ZM292.26 194.261H396.02L344.14 284.122L292.26 194.261ZM532.22 0.09198H156.06L56 173.402L244.08 499.152H444.2L632.28 173.402L532.22 0.09198Z" fill="#818181"/>
<path fill-rule="evenodd" clip-rule="evenodd" d="M420.11 457.422H268.17L204.25 346.712H484.03L420.11 457.422Z" fill="#DADADA"/>
<path fill-rule="evenodd" clip-rule="evenodd" d="M396.02 194.261L344.14 284.122L292.26 194.261H396.02Z" fill="#00FF85"/>
<path fill-rule="evenodd" clip-rule="evenodd" d="M584.09 173.402L520.17 284.112L380.28 41.812H508.13L584.09 173.402Z" fill="#DADADA"/>
<path fill-rule="evenodd" clip-rule="evenodd" d="M308 41.812L168.11 284.112L104.19 173.402L180.16 41.812H308" fill="#DADADA"/>
<path d="M8.93555 638.881V553.814H47.6562C65.0508 553.814 73.748 561.42 73.748 576.63C73.748 586.916 66.9769 595.434 53.4346 602.186L80.4199 639H60.5234L34.6104 601.888V594.68C49.7015 592.098 57.2471 586.241 57.2471 577.106C57.2471 570.832 53.7126 567.694 46.6436 567.694H25.0195V638.881H8.93555ZM163.325 553.814V567.396H120.673V588.842H161.3V602.96H120.494V625.299H164.159V639H105.006V553.814H163.325ZM204.591 639H188.388L224.547 553.814H241.524L278.458 639H261.48L251.77 615.768H223.474L228.895 602.066H246.052L232.648 570.077L204.591 639ZM373.873 635.426C366.526 638.206 358.186 639.596 348.853 639.596C318.274 639.596 302.984 624.802 302.984 595.216C302.984 567.218 318.274 553.219 348.853 553.219C358.186 553.219 366.526 554.609 373.873 557.389V571.686C366.526 568.508 358.583 566.92 350.045 566.92C329.592 566.92 319.366 576.352 319.366 595.216C319.366 615.668 329.592 625.895 350.045 625.895C358.583 625.895 366.526 624.306 373.873 621.129V635.426ZM461.544 553.814V567.516H437.12V639H421.334V567.516H396.91V553.814H461.544ZM501.022 596.169C501.022 615.986 509.819 625.895 527.412 625.895C544.568 625.895 553.146 615.986 553.146 596.169C553.146 576.67 544.568 566.92 527.412 566.92C509.819 566.92 501.022 576.67 501.022 596.169ZM484.64 596.526C484.64 567.655 498.897 553.219 527.412 553.219C555.489 553.219 569.528 567.655 569.528 596.526C569.528 625.239 555.489 639.596 527.412 639.596C500.168 639.596 485.911 625.239 484.64 596.526ZM601.56 638.881V553.814H640.281C657.675 553.814 666.373 561.42 666.373 576.63C666.373 586.916 659.601 595.434 646.059 602.186L673.044 639H653.148L627.235 601.888V594.68C642.326 592.098 649.872 586.241 649.872 577.106C649.872 570.832 646.337 567.694 639.268 567.694H617.644V638.881H601.56Z" fill="#818181"/>
<path d="M8.93555 638.881H4.93555V642.881H8.93555V638.881ZM8.93555 553.814V549.814H4.93555V553.814H8.93555ZM53.4346 602.186L51.6499 598.606L47.403 600.723L50.2085 604.55L53.4346 602.186ZM80.4199 639V643H88.3115L83.646 636.635L80.4199 639ZM60.5234 639L57.2438 641.29L58.4378 643H60.5234V639ZM34.6104 601.888H30.6104V603.146L31.3307 604.178L34.6104 601.888ZM34.6104 594.68L33.9359 590.737L30.6104 591.306V594.68H34.6104ZM25.0195 567.694V563.694H21.0195V567.694H25.0195ZM25.0195 638.881V642.881H29.0195V638.881H25.0195ZM12.9355 638.881V553.814H4.93555V638.881H12.9355ZM8.93555 557.814H47.6562V549.814H8.93555V557.814ZM47.6562 557.814C55.8589 557.814 61.2639 559.619 64.5921 562.529C67.8177 565.35 69.748 569.791 69.748 576.63H77.748C77.748 568.258 75.3298 561.292 69.8581 556.507C64.4891 551.812 56.8481 549.814 47.6562 549.814V557.814ZM69.748 576.63C69.748 584.734 64.555 592.172 51.6499 598.606L55.2192 605.765C69.3988 598.696 77.748 589.098 77.748 576.63H69.748ZM50.2085 604.55L77.1938 641.365L83.646 636.635L56.6607 599.821L50.2085 604.55ZM80.4199 635H60.5234V643H80.4199V635ZM63.8031 636.71L37.89 599.598L31.3307 604.178L57.2438 641.29L63.8031 636.71ZM38.6104 601.888V594.68H30.6104V601.888H38.6104ZM35.2848 598.622C43.1285 597.281 49.5262 595.015 54.0408 591.51C58.7376 587.864 61.2471 582.974 61.2471 577.106H53.2471C53.2471 580.374 51.9837 582.979 49.135 585.191C46.104 587.544 41.1834 589.497 33.9359 590.737L35.2848 598.622ZM61.2471 577.106C61.2471 573.221 60.1308 569.612 57.2516 567.056C54.4632 564.581 50.685 563.694 46.6436 563.694V571.694C49.6711 571.694 51.1946 572.377 51.9408 573.039C52.5961 573.621 53.2471 574.717 53.2471 577.106H61.2471ZM46.6436 563.694H25.0195V571.694H46.6436V563.694ZM21.0195 567.694V638.881H29.0195V567.694H21.0195ZM25.0195 634.881H8.93555V642.881H25.0195V634.881ZM163.325 553.814H167.325V549.814H163.325V553.814ZM163.325 567.396V571.396H167.325V567.396H163.325ZM120.673 567.396V563.396H116.673V567.396H120.673ZM120.673 588.842H116.673V592.842H120.673V588.842ZM161.3 588.842H165.3V584.842H161.3V588.842ZM161.3 602.96V606.96H165.3V602.96H161.3ZM120.494 602.96V598.96H116.494V602.96H120.494ZM120.494 625.299H116.494V629.299H120.494V625.299ZM164.159 625.299H168.159V621.299H164.159V625.299ZM164.159 639V643H168.159V639H164.159ZM105.006 639H101.006V643H105.006V639ZM105.006 553.814V549.814H101.006V553.814H105.006ZM159.325 553.814V567.396H167.325V553.814H159.325ZM163.325 563.396H120.673V571.396H163.325V563.396ZM116.673 567.396V588.842H124.673V567.396H116.673ZM120.673 592.842H161.3V584.842H120.673V592.842ZM157.3 588.842V602.96H165.3V588.842H157.3ZM161.3 598.96H120.494V606.96H161.3V598.96ZM116.494 602.96V625.299H124.494V602.96H116.494ZM120.494 629.299H164.159V621.299H120.494V629.299ZM160.159 625.299V639H168.159V625.299H160.159ZM164.159 635H105.006V643H164.159V635ZM109.006 639V553.814H101.006V639H109.006ZM105.006 557.814H163.325V549.814H105.006V557.814ZM204.591 639V643H207.281L208.295 640.508L204.591 639ZM188.388 639L184.706 637.437L182.344 643H188.388V639ZM224.547 553.814V549.814H221.899L220.865 552.252L224.547 553.814ZM241.524 553.814L245.194 552.223L244.15 549.814H241.524V553.814ZM278.458 639V643H284.552L282.128 637.409L278.458 639ZM261.48 639L257.79 640.542L258.817 643H261.48V639ZM251.77 615.768L255.461 614.225L254.434 611.768H251.77V615.768ZM223.474 615.768L219.755 614.296L217.59 619.768H223.474V615.768ZM228.895 602.066V598.066H226.176L225.176 600.595L228.895 602.066ZM246.052 602.066V606.066H252.065L249.741 600.521L246.052 602.066ZM232.648 570.077L236.338 568.531L232.595 559.599L228.944 568.569L232.648 570.077ZM204.591 635H188.388V643H204.591V635ZM192.07 640.563L228.229 555.377L220.865 552.252L184.706 637.437L192.07 640.563ZM224.547 557.814H241.524V549.814H224.547V557.814ZM237.854 555.406L274.788 640.591L282.128 637.409L245.194 552.223L237.854 555.406ZM278.458 635H261.48V643H278.458V635ZM265.171 637.458L255.461 614.225L248.08 617.31L257.79 640.542L265.171 637.458ZM251.77 611.768H223.474V619.768H251.77V611.768ZM227.194 617.239L232.615 603.538L225.176 600.595L219.755 614.296L227.194 617.239ZM228.895 606.066H246.052V598.066H228.895V606.066ZM249.741 600.521L236.338 568.531L228.959 571.623L242.362 603.612L249.741 600.521ZM228.944 568.569L200.886 637.492L208.295 640.508L236.353 571.585L228.944 568.569ZM373.873 635.426L375.288 639.167L377.873 638.189V635.426H373.873ZM373.873 557.389H377.873V554.625L375.288 553.648L373.873 557.389ZM373.873 571.686L372.285 575.357L377.873 577.773V571.686H373.873ZM373.873 621.129H377.873V615.041L372.285 617.457L373.873 621.129ZM372.457 631.685C365.639 634.265 357.791 635.596 348.853 635.596V643.596C358.581 643.596 367.413 642.147 375.288 639.167L372.457 631.685ZM348.853 635.596C334.148 635.596 323.859 632.037 317.233 625.626C310.631 619.239 306.984 609.358 306.984 595.216H298.984C298.984 610.66 302.982 622.97 311.67 631.375C320.333 639.758 332.979 643.596 348.853 643.596V635.596ZM306.984 595.216C306.984 581.929 310.596 572.671 317.153 566.668C323.776 560.604 334.097 557.219 348.853 557.219V549.219C333.03 549.219 320.417 552.833 311.75 560.768C303.017 568.764 298.984 580.505 298.984 595.216H306.984ZM348.853 557.219C357.791 557.219 365.639 558.55 372.457 561.13L375.288 553.648C367.413 550.668 358.581 549.219 348.853 549.219V557.219ZM369.873 557.389V571.686H377.873V557.389H369.873ZM375.46 568.014C367.579 564.606 359.092 562.92 350.045 562.92V570.92C358.074 570.92 365.472 572.411 372.285 575.357L375.46 568.014ZM350.045 562.92C339.278 562.92 330.458 565.396 324.324 571.054C318.128 576.768 315.366 585.08 315.366 595.216H323.366C323.366 586.487 325.717 580.652 329.748 576.934C333.839 573.16 340.358 570.92 350.045 570.92V562.92ZM315.366 595.216C315.366 606.059 318.079 614.925 324.207 621.053C330.335 627.181 339.202 629.895 350.045 629.895V621.895C340.435 621.895 333.962 619.495 329.864 615.396C325.766 611.298 323.366 604.825 323.366 595.216H315.366ZM350.045 629.895C359.092 629.895 367.579 628.208 375.46 624.8L372.285 617.457C365.472 620.404 358.074 621.895 350.045 621.895V629.895ZM369.873 621.129V635.426H377.873V621.129H369.873ZM461.544 553.814H465.544V549.814H461.544V553.814ZM461.544 567.516V571.516H465.544V567.516H461.544ZM437.12 567.516V563.516H433.12V567.516H437.12ZM437.12 639V643H441.12V639H437.12ZM421.334 639H417.334V643H421.334V639ZM421.334 567.516H425.334V563.516H421.334V567.516ZM396.91 567.516H392.91V571.516H396.91V567.516ZM396.91 553.814V549.814H392.91V553.814H396.91ZM457.544 553.814V567.516H465.544V553.814H457.544ZM461.544 563.516H437.12V571.516H461.544V563.516ZM433.12 567.516V639H441.12V567.516H433.12ZM437.12 635H421.334V643H437.12V635ZM425.334 639V567.516H417.334V639H425.334ZM421.334 563.516H396.91V571.516H421.334V563.516ZM400.91 567.516V553.814H392.91V567.516H400.91ZM396.91 557.814H461.544V549.814H396.91V557.814ZM484.64 596.526H480.64V596.615L480.644 596.703L484.64 596.526ZM497.022 596.169C497.022 606.585 499.323 615.143 504.628 621.119C510.014 627.185 517.867 629.895 527.412 629.895V621.895C519.363 621.895 514.022 619.65 510.611 615.808C507.119 611.874 505.022 605.57 505.022 596.169H497.022ZM527.412 629.895C536.769 629.895 544.469 627.166 549.737 621.081C554.909 615.107 557.146 606.564 557.146 596.169H549.146C549.146 605.591 547.094 611.911 543.688 615.845C540.378 619.669 535.211 621.895 527.412 621.895V629.895ZM557.146 596.169C557.146 585.92 554.903 577.486 549.716 571.59C544.442 565.597 536.749 562.92 527.412 562.92V570.92C535.231 570.92 540.404 573.118 543.709 576.874C547.1 580.729 549.146 586.919 549.146 596.169H557.146ZM527.412 562.92C517.886 562.92 510.04 565.578 504.65 571.553C499.33 577.449 497.022 585.899 497.022 596.169H505.022C505.022 586.94 507.113 580.765 510.589 576.912C513.996 573.136 519.344 570.92 527.412 570.92V562.92ZM488.64 596.526C488.64 582.695 492.054 573.058 498.179 566.856C504.295 560.664 513.784 557.219 527.412 557.219V549.219C512.525 549.219 500.629 552.991 492.487 561.235C484.355 569.469 480.64 581.486 480.64 596.526H488.64ZM527.412 557.219C540.805 557.219 550.122 560.655 556.131 566.834C562.161 573.034 565.528 582.68 565.528 596.526H573.528C573.528 581.501 569.876 569.493 561.866 561.257C553.837 553 542.096 549.219 527.412 549.219V557.219ZM565.528 596.526C565.528 610.288 562.163 619.871 556.139 626.032C550.131 632.176 540.811 635.596 527.412 635.596V643.596C542.09 643.596 553.828 639.837 561.859 631.625C569.873 623.429 573.528 611.477 573.528 596.526H565.528ZM527.412 635.596C514.475 635.596 505.271 632.199 499.124 626.01C492.943 619.786 489.246 610.128 488.636 596.35L480.644 596.703C481.305 611.638 485.372 623.515 493.448 631.647C501.559 639.814 513.105 643.596 527.412 643.596V635.596ZM601.56 638.881H597.56V642.881H601.56V638.881ZM601.56 553.814V549.814H597.56V553.814H601.56ZM646.059 602.186L644.274 598.606L640.027 600.723L642.833 604.55L646.059 602.186ZM673.044 639V643H680.936L676.271 636.635L673.044 639ZM653.148 639L649.868 641.29L651.062 643H653.148V639ZM627.235 601.888H623.235V603.146L623.955 604.178L627.235 601.888ZM627.235 594.68L626.56 590.737L623.235 591.306V594.68H627.235ZM617.644 567.694V563.694H613.644V567.694H617.644ZM617.644 638.881V642.881H621.644V638.881H617.644ZM605.56 638.881V553.814H597.56V638.881H605.56ZM601.56 557.814H640.281V549.814H601.56V557.814ZM640.281 557.814C648.483 557.814 653.888 559.619 657.217 562.529C660.442 565.35 662.373 569.791 662.373 576.63H670.373C670.373 568.258 667.954 561.292 662.483 556.507C657.114 551.812 649.473 549.814 640.281 549.814V557.814ZM662.373 576.63C662.373 584.734 657.18 592.172 644.274 598.606L647.844 605.765C662.023 598.696 670.373 589.098 670.373 576.63H662.373ZM642.833 604.55L669.818 641.365L676.271 636.635L649.285 599.821L642.833 604.55ZM673.044 635H653.148V643H673.044V635ZM656.428 636.71L630.515 599.598L623.955 604.178L649.868 641.29L656.428 636.71ZM631.235 601.888V594.68H623.235V601.888H631.235ZM627.909 598.622C635.753 597.281 642.151 595.015 646.665 591.51C651.362 587.864 653.872 582.974 653.872 577.106H645.872C645.872 580.374 644.608 582.979 641.76 585.191C638.729 587.544 633.808 589.497 626.56 590.737L627.909 598.622ZM653.872 577.106C653.872 573.221 652.755 569.612 649.876 567.056C647.088 564.581 643.31 563.694 639.268 563.694V571.694C642.296 571.694 643.819 572.377 644.565 573.039C645.221 573.621 645.872 574.717 645.872 577.106H653.872ZM639.268 563.694H617.644V571.694H639.268V563.694ZM613.644 567.694V638.881H621.644V567.694H613.644ZM617.644 634.881H601.56V642.881H617.644V634.881Z" fill="#818181"/>
</svg>
