<?xml version="1.0" encoding="UTF-8"?>
<svg width="388px" height="427px" viewBox="0 0 388 427" version="1.1" xmlns="http://www.w3.org/2000/svg" xmlns:xlink="http://www.w3.org/1999/xlink">
    <!-- Generator: Sketch 43.2 (39069) - http://www.bohemiancoding.com/sketch -->
    <title>Group 2</title>
    <desc>Created with Sketch.</desc>
    <defs></defs>
    <g id="brand" stroke="none" stroke-width="1" fill="none" fill-rule="evenodd">
        <g id="Group-2" transform="translate(4.000000, 4.000000)">
            <polygon id="Combined-Shape" fill="#7CC919" points="0 0.5 87.5 46.5 130.5 137 160.198392 160.277118 165 142 171.057889 168.788615 204.5 195 279.5 134.5 302.5 73 379.5 78.5 316 49.5 302.5 56 300.5 42 278 32 202 72.5 90 10.5"></polygon>
            <polygon id="Path-2" fill="#7CC919" points="130.5 145.5 131 193 205 333.5 279 196 278.5 143.5 204.5 218.5"></polygon>
            <polygon id="Path-3" fill="#00993D" points="379.5 78.5 318.5 88 302.5 73"></polygon>
            <polygon id="Path-4" fill="#006B33" points="279.5 134.5 302.5 73 318.5 88"></polygon>
            <polygon id="Path-5" fill="#006B33" points="130.5 137 87.5 46.5 72 49"></polygon>
            <polygon id="Path-6" fill="#00993D" points="72 49 87.5 46.5 0.5 0.5"></polygon>
            <polygon id="Path-7" fill="#00993D" points="279 196 269.5 238 205 333.5"></polygon>
            <polygon id="Path-8" fill="#00993D" points="205 333.5 131 193 141.5 233.5"></polygon>
            <polygon id="Path-9" fill="#00993D" points="316 49.5 302.5 56 305.5 48"></polygon>
            <polygon id="Path-10" fill="#006B33" points="302.5 56 305.5 48 300.5 42"></polygon>
            <polygon id="Path-13" fill="#006B33" points="211.5 113.5 236 95.5 268 95.5 238 102"></polygon>
            <polygon id="Path-14" fill="#006B33" points="187.5 114.5 168 99.5 135 91.5 171 94"></polygon>
            <path d="M33.2689791,393.152247 C31.5709204,394.119424 29.9131872,394.145909 28.2957501,393.231705 C27.467746,392.725702 26.7317533,392.185208 26.0877501,391.610205 C25.4437469,391.035202 24.8457529,390.770705 24.2937501,390.816705 C23.281745,390.264702 23.0517473,389.183713 23.6037501,387.573705 C23.8337512,386.929702 24.259247,386.320208 24.8802501,385.745205 C25.5012532,385.170202 26.2947453,384.767706 27.2607501,384.537705 C31.8607731,382.559695 36.1157305,382.0997 40.0257501,383.157705 C41.7737588,383.617707 42.9812468,384.549198 43.6482501,385.952205 C44.3152534,387.355212 44.6027506,388.930696 44.5107501,390.678705 C44.4187496,392.426714 44.0392534,394.197696 43.3722501,395.991705 C42.7052468,397.785714 41.980754,399.2232 41.1987501,400.304205 C40.4167462,401.38521 39.3242571,402.661698 37.9212501,404.133705 C36.5182431,405.605712 34.7587607,407.031698 32.6427501,408.411705 C27.4447241,411.769722 21.8787798,413.379706 15.9447501,413.241705 C7.34270709,413.103704 2.25975792,409.58474 0.695750097,402.684705 C0.189747567,400.476694 -0.0402501334,397.992719 0.00575009663,395.232705 C0.465752397,387.228665 2.85772848,379.75374 7.1817501,372.807705 C9.25176045,369.495688 12.0347326,366.229721 15.5307501,363.009705 C17.7387611,361.031695 20.2227363,359.51371 22.9827501,358.455705 C24.4547575,357.857702 26.2257397,357.282708 28.2957501,356.730705 C34.9197832,355.396698 40.0717317,356.22469 43.7517501,359.214705 C45.4997588,360.640712 46.6612472,362.710691 47.2362501,365.424705 C47.811253,368.138719 47.5007561,371.174688 46.3047501,374.532705 C45.7987476,376.096713 44.9247563,377.269701 43.6827501,378.051705 C42.4407439,378.833709 41.1642567,379.282204 39.8532501,379.397205 C38.5422435,379.512206 37.3577554,379.351207 36.2997501,378.914205 C35.2417448,378.477203 34.6667506,377.844709 34.5747501,377.016705 L33.9537501,375.636705 C32.8497446,373.980697 30.9407637,373.773699 28.2267501,375.015705 C25.8807384,376.07371 23.5347618,377.913692 21.1887501,380.535705 C18.7047377,383.341719 17.0947538,385.871694 16.3587501,388.125705 C15.530746,390.609717 15.1167501,392.242701 15.1167501,393.024705 C15.0247496,394.772714 15.6457434,396.336698 16.9797501,397.716705 C18.9117598,398.958711 20.8437404,399.522206 22.7757501,399.407205 C24.7077598,399.292204 26.4327425,398.855209 27.9507501,398.096205 C29.4687577,397.337201 30.7107453,396.47471 31.6767501,395.508705 C32.6427549,394.5427 33.1257501,393.852707 33.1257501,393.438705 C33.1734933,393.343219 33.2212363,393.247733 33.2689791,393.152247 L33.2689791,393.152247 Z M54.6537501,379.362705 C55.6197549,378.672702 56.815743,378.511703 58.2417501,378.879705 C58.5177515,378.925705 58.7937487,378.948705 59.0697501,378.948705 C60.0817552,376.878695 61.8297377,375.797705 64.3137501,375.705705 C64.9577533,375.659705 65.8547443,375.544706 67.0047501,375.360705 C68.1547558,375.176704 69.5462419,375.222704 71.1792501,375.498705 C72.8122583,375.774706 74.2497439,376.257702 75.4917501,376.947705 C78.2057637,378.419712 79.8387473,380.535691 80.3907501,383.295705 C81.4947556,387.343725 81.3337572,391.759681 79.9077501,396.543705 C78.3897425,401.833731 75.8137683,406.065689 72.1797501,409.239705 C70.5237418,410.711712 68.7757593,411.643203 66.9357501,412.034205 C65.0957409,412.425207 63.4397575,412.643705 61.9677501,412.689705 C60.4957427,412.735705 59.1502562,412.747205 57.9312501,412.724205 C56.712244,412.701205 55.5277558,412.574706 54.3777501,412.344705 C51.8937377,411.838702 49.8467581,410.665714 48.2367501,408.825705 C46.3507407,406.755695 45.5457487,403.535727 45.8217501,399.165705 C46.005751,395.301686 46.9832412,391.403225 48.7542501,387.470205 C50.525259,383.537185 52.4917393,380.834712 54.6537501,379.362705 Z M66.7977501,393.231705 C65.6477443,393.599707 64.5667552,393.760705 63.5547501,393.714705 C63.0487476,394.220708 62.6002521,394.761202 62.2092501,395.336205 C61.8182481,395.911208 61.3007533,396.440203 60.6567501,396.923205 C60.0127469,397.406207 59.6907501,397.601705 59.6907501,397.509705 C58.9087462,398.613711 58.2647526,399.752199 57.7587501,400.925205 C57.2527476,402.098211 57.2527476,403.282699 57.7587501,404.478705 C59.5987593,404.662706 60.9557457,404.616706 61.8297501,404.340705 C62.7037545,404.064704 63.5202463,403.535709 64.2792501,402.753705 C65.0382539,401.971701 65.624748,401.05171 66.0387501,399.993705 C66.8667542,398.015695 67.1197517,395.761718 66.7977501,393.231705 Z M94.3287501,409.032705 L92.6037501,410.619705 C91.6837455,411.263708 90.7867545,411.654704 89.9127501,411.792705 L89.9817501,411.861705 L89.6367501,412.137705 C86.3707338,412.413706 83.9557579,411.700714 82.3917501,409.998705 C80.781742,408.204696 80.4367455,405.85872 81.3567501,402.960705 C83.3807602,391.506648 86.2097319,380.880754 89.8437501,371.082705 C92.2817623,364.458672 94.6277388,360.019716 96.8817501,357.765705 C98.0777561,356.615699 99.181745,356.270703 100.19375,356.730705 C100.469751,355.626699 100.952747,354.764208 101.64275,354.143205 C102.332754,353.522202 103.091746,353.154206 103.91975,353.039205 C104.747754,352.924204 105.552746,353.062203 106.33475,353.453205 C107.116754,353.844207 107.726248,354.5457 108.16325,355.557705 C108.600252,356.56971 108.78425,357.5472 108.71525,358.490205 C108.64625,359.43321 108.439252,360.353201 108.09425,361.250205 C107.749248,362.147209 107.335253,363.032701 106.85225,363.906705 C106.369248,364.780709 105.920752,365.654701 105.50675,366.528705 C102.562735,373.61274 100.469756,378.856688 99.2277501,382.260705 L99.8487501,381.846705 C102.884765,379.822695 106.127733,378.925704 109.57775,379.155705 C111.095758,379.293706 112.464244,379.696202 113.68325,380.363205 C114.902256,381.030208 115.799247,382.030698 116.37425,383.364705 C116.949253,384.698712 117.179251,386.412195 117.06425,388.505205 C116.94925,390.598215 116.546754,392.760194 115.85675,394.991205 C115.166747,397.222216 114.235256,399.395694 113.06225,401.511705 C111.889244,403.627716 110.589757,405.467697 109.16375,407.031705 C105.943734,410.573723 102.838765,411.907709 99.8487501,411.033705 C98.5607437,411.217706 97.0657586,410.619712 95.3637501,409.239705 C94.9957483,408.917703 94.6507517,408.664706 94.3287501,408.480705 L94.3287501,409.032705 Z M96.1917501,404.064705 C96.8817535,403.282701 98.0662417,401.810716 99.7452501,399.648705 C101.424258,397.486694 102.551247,395.796211 103.12625,394.577205 C103.701253,393.358199 103.551754,392.21971 102.67775,391.161705 C101.803746,390.057699 100.699757,390.885691 99.3657501,393.645705 C97.2497395,398.061727 96.1917501,401.534692 96.1917501,404.064705 Z M131.24375,406.134705 C130.967749,407.10071 130.645752,407.951701 130.27775,408.687705 C129.909748,409.423709 129.357754,410.113702 128.62175,410.757705 C127.885746,411.401708 127.011755,412.011202 125.99975,412.586205 C124.987745,413.161208 124.021755,413.563704 123.10175,413.793705 C120.98574,414.253707 119.881751,413.632714 119.78975,411.930705 C119.651749,411.470703 119.364252,411.206205 118.92725,411.137205 C118.490248,411.068205 118.087752,410.941706 117.71975,410.757705 C116.753745,410.343703 116.477748,409.216714 116.89175,407.376705 C117.627754,404.846692 118.432746,401.776223 119.30675,398.165205 C120.180754,394.554187 121.307743,390.586727 122.68775,386.262705 C125.953766,375.774653 130.001726,366.321747 134.83175,357.903705 C135.153752,357.489703 135.521748,356.949208 135.93575,356.282205 C136.349752,355.615202 136.878747,355.005708 137.52275,354.453705 C139.132758,352.981698 141.110738,352.636701 143.45675,353.418705 C143.41075,354.016708 143.548748,354.557203 143.87075,355.040205 C144.192752,355.523207 144.560748,356.017702 144.97475,356.523705 C146.032755,357.719711 146.515751,358.8007 146.42375,359.766705 C141.547726,371.312763 137.15477,384.215634 133.24475,398.475705 C132.784748,400.131713 132.416751,401.580699 132.14075,402.822705 C131.864749,404.064711 131.565752,405.1687 131.24375,406.134705 Z M147.11375,378.948705 C147.711753,377.430697 149.137739,376.395708 151.39175,375.843705 C153.507761,375.291702 155.485741,375.360702 157.32575,376.050705 C159.21176,376.786709 160.062751,377.982697 159.87875,379.638705 C159.372748,381.248713 158.740254,383.215193 157.98125,385.538205 C157.222246,387.861217 156.497754,390.241693 155.80775,392.679705 C153.967741,398.935736 152.909751,403.351692 152.63375,405.927705 C151.943747,410.067726 150.793758,412.298703 149.18375,412.620705 C148.723748,412.712705 148.286752,412.781705 147.87275,412.827705 C146.860745,412.873705 146.216751,413.149702 145.94075,413.655705 C145.664749,414.161708 145.204753,414.541204 144.56075,414.794205 C143.916747,415.047206 143.215254,415.162205 142.45625,415.139205 C141.697246,415.116205 140.926754,414.932207 140.14475,414.587205 C139.362746,414.242203 138.695753,413.747708 138.14375,413.103705 C136.855744,411.539697 136.602746,409.446718 137.38475,406.824705 C138.120754,401.81068 139.983735,395.439744 142.97375,387.711705 C144.399757,383.893686 145.779743,380.972715 147.11375,378.948705 Z M160.15475,368.598705 C157.900739,369.058707 156.072257,368.920709 154.66925,368.184705 C153.266243,367.448701 152.449751,366.56321 152.21975,365.528205 C151.989749,364.4932 152.311746,363.423711 153.18575,362.319705 C154.197755,360.939698 155.71574,360.042707 157.73975,359.628705 C158.659755,359.536705 159.326748,359.490705 159.74075,359.490705 C160.154752,359.490705 160.660747,359.582704 161.25875,359.766705 C162.776758,359.904706 163.765748,360.571699 164.22575,361.767705 C164.869753,362.77971 164.927253,363.929699 164.39825,365.217705 C163.869247,366.505711 162.454762,367.6327 160.15475,368.598705 Z M171.67775,378.948705 C174.759766,377.706699 176.829745,377.683699 177.88775,378.879705 C178.439753,379.523708 178.71575,380.420699 178.71575,381.570705 L178.71575,381.915705 C180.417759,379.937695 183.384729,378.281712 187.61675,376.947705 C192.078772,375.567698 195.758736,375.176702 198.65675,375.774705 C202.428769,376.556709 204.544748,379.017684 205.00475,383.157705 C205.372752,386.653722 204.56776,391.092678 202.58975,396.474705 C201.945747,397.854712 201.451252,398.970201 201.10625,399.821205 C200.761248,400.672209 200.450751,401.442702 200.17475,402.132705 C199.576747,403.420711 198.633757,404.961696 197.34575,406.755705 C196.609746,408.135712 195.471258,409.193701 193.93025,409.929705 C192.389242,410.665709 190.871258,411.091204 189.37625,411.206205 C187.881243,411.321206 186.650755,411.091208 185.68475,410.516205 C184.718745,409.941202 184.442748,409.032711 184.85675,407.790705 C185.914755,404.938691 186.788747,402.339717 187.47875,399.993705 C188.168754,397.647693 188.881746,395.646713 189.61775,393.990705 C190.307754,391.644693 190.399753,390.172708 189.89375,389.574705 C189.479748,389.114703 188.766755,389.183702 187.75475,389.781705 C186.880746,390.333708 186.259752,390.977701 185.89175,391.713705 C185.063746,392.311708 183.499762,394.703684 181.19975,398.889705 C180.555747,400.039711 179.923253,401.178199 179.30225,402.305205 C178.681247,403.432211 178.106253,404.4787 177.57725,405.444705 C177.048247,406.41071 176.588252,407.215702 176.19725,407.859705 C175.806248,408.503708 175.461252,408.929204 175.16225,409.136205 C174.863249,409.343206 174.610251,409.481205 174.40325,409.550205 C174.196249,409.619205 174.023751,409.699705 173.88575,409.791705 C173.747749,409.883705 173.632751,410.182702 173.54075,410.688705 C173.356749,411.74671 172.25276,412.528702 170.22875,413.034705 C166.962734,413.862709 164.018763,413.724711 161.39675,412.620705 C160.522746,412.252703 159.832753,411.746708 159.32675,411.102705 C158.268745,408.986694 160.085727,401.787766 164.77775,389.505705 C166.433758,385.181683 167.514748,382.605709 168.02075,381.777705 C169.170756,380.029696 169.918248,379.040706 170.26325,378.810705 C170.608252,378.580704 171.079747,378.626703 171.67775,378.948705 Z M230.12075,410.481705 C228.326741,411.953712 226.199262,413.069201 223.73825,413.828205 C221.277238,414.587209 218.804763,414.989705 216.32075,415.035705 C213.836738,415.081705 211.513761,414.782708 209.35175,414.138705 C207.189739,413.494702 205.487756,412.482712 204.24575,411.102705 C202.773743,409.538697 202.267748,407.974713 202.72775,406.410705 C202.957751,405.766702 203.360247,405.260707 203.93525,404.892705 C204.510253,404.524703 205.211746,404.432704 206.03975,404.616705 C206.591753,404.662705 206.994249,404.513207 207.24725,404.168205 C207.500251,403.823203 207.718749,403.432207 207.90275,402.995205 C208.086751,402.558203 208.293749,402.144207 208.52375,401.753205 C208.753751,401.362203 209.121748,401.166705 209.62775,401.166705 C217.723791,401.396706 221.932748,400.683713 222.25475,399.027705 C221.702747,398.521702 221.024254,398.084707 220.21925,397.716705 C219.414246,397.348703 218.597754,396.980707 217.76975,396.612705 C215.74574,395.6927 214.388754,394.680711 213.69875,393.576705 C212.824746,393.116703 212.157752,392.012714 211.69775,390.264705 C211.467749,389.482701 211.35275,388.677709 211.35275,387.849705 C211.35275,387.021701 211.490749,386.262708 211.76675,385.572705 C211.628749,383.778696 212.732738,381.800716 215.07875,379.638705 C215.722753,379.040702 216.527745,378.396708 217.49375,377.706705 C218.459755,377.016702 219.90874,376.349708 221.84075,375.705705 C223.77276,375.061702 225.693241,374.590207 227.60225,374.291205 C229.51126,373.992204 231.236242,373.888705 232.77725,373.980705 C234.318258,374.072705 235.422247,374.440702 236.08925,375.084705 C236.756253,375.728708 237.285248,376.5337 237.67625,377.499705 C238.067252,378.46571 238.193751,379.4087 238.05575,380.328705 C237.687748,382.398715 235.985765,383.824701 232.94975,384.606705 C229.131731,385.158708 227.291749,385.664703 227.42975,386.124705 C227.42975,386.216705 227.268752,386.331704 226.94675,386.469705 C230.488768,388.907717 232.949743,391.299693 234.32975,393.645705 C236.21576,396.865721 236.491757,400.453685 235.15775,404.409705 C235.387751,405.697711 234.237763,407.307695 231.70775,409.239705 C231.109747,409.699707 230.580752,410.113703 230.12075,410.481705 Z" id="Goblins" fill="#006B33"></path>
            <path d="M297.445811,385.068636 C297.445811,383.9916 297.068854,383.45309 296.314929,383.45309 C296.027719,383.45309 295.686663,383.524892 295.29175,383.668496 C294.896837,383.812101 294.51988,383.937753 294.160868,384.045457 C292.832524,384.763481 291.80038,385.54432 291.064406,386.387998 C290.328432,387.231676 289.583493,388.174068 288.829568,389.215203 C288.075643,390.256337 287.429431,391.369257 286.890913,392.553997 C286.352396,393.738736 285.939538,394.851656 285.652329,395.892791 C284.611194,399.734218 285.006101,402.319065 286.837062,403.647409 C287.590987,404.185927 288.389777,404.446207 289.233454,404.428256 C290.077132,404.410306 290.759245,404.239778 291.279812,403.916667 C291.800379,403.593556 292.311964,403.288401 292.81458,403.001191 C293.317197,402.713981 293.900583,402.507553 294.564755,402.381899 C295.228927,402.256244 296.054642,402.345996 297.041924,402.651156 C298.029207,402.956316 298.558742,403.360199 298.630544,403.862815 C298.702347,404.365432 298.702347,404.885991 298.630544,405.424509 C298.558742,405.963027 298.549767,406.447686 298.603618,406.8785 C298.65747,407.309315 299.043402,407.578569 299.761426,407.686273 C300.443549,408.547902 300.012741,409.58902 298.46899,410.809661 C298.074077,411.132772 297.69712,411.437927 297.338108,411.725137 C294.250605,413.699702 290.965696,414.794672 287.48328,415.010079 C285.293308,415.153684 282.959765,414.758777 280.482583,413.825346 C276.78476,412.425199 274.702522,409.283892 274.235807,404.40133 C273.625487,399.87778 274.199897,395.192745 275.959056,390.346084 C277.431004,386.253349 279.656845,382.46583 282.636644,378.983414 C285.329233,375.788208 287.985881,373.705971 290.606668,372.736638 C293.730072,371.121085 297.104733,370.492823 300.730753,370.851835 C304.572181,371.354452 307.085226,372.987932 308.269966,375.752323 C309.454705,378.516715 309.257252,381.837525 307.677599,385.714854 C307.139081,387.079099 306.115913,388.156119 304.608063,388.945945 C303.31562,389.663969 301.915494,390.022975 300.407644,390.022975 C298.899794,390.022975 297.930477,389.547292 297.499662,388.59591 C297.068848,387.644529 297.050898,386.468782 297.445811,385.068636 Z M325.287045,372.575084 C325.646057,373.544416 325.843511,374.190628 325.879412,374.513738 C325.951214,375.195861 325.69991,375.770272 325.125491,376.236987 C325.125491,376.272888 325.08959,376.326739 325.017788,376.398542 C325.340898,378.085898 325.4127,379.665526 325.233194,381.137475 C325.053688,382.609424 324.820333,384.0275 324.533124,385.391745 C326.471788,382.088835 328.015516,379.665541 329.164354,378.12179 C331.533833,374.926584 333.741723,372.646893 335.788091,371.282647 C336.470214,370.887734 337.304904,370.591554 338.292187,370.394097 C339.279469,370.196641 340.221861,370.169715 341.119391,370.31332 C342.016921,370.456925 342.76186,370.815931 343.354229,371.39035 C343.946599,371.964769 344.206879,372.826385 344.135076,373.975223 C343.129843,380.975955 342.052823,387.500899 340.903985,393.55025 C339.755147,399.5996 338.26527,405.37063 336.434309,410.863512 L336.434309,410.971216 L336.380458,410.971216 C335.949643,412.263658 334.872624,413.179125 333.149367,413.717643 C331.462011,414.22026 329.954183,414.25616 328.625839,413.825346 C327.010286,413.35863 326.274322,412.497015 326.417927,411.240473 L326.471779,410.001888 L326.471779,409.894185 C326.615383,409.032557 326.69616,408.449171 326.71411,408.144011 C326.732061,407.838851 326.758986,407.614472 326.794888,407.470867 C326.86669,406.537436 327.019268,405.666845 327.252626,404.859068 C327.485983,404.051292 327.656511,403.396105 327.764215,402.893488 C327.871919,402.390871 327.979621,401.915188 328.087324,401.466423 C328.195028,401.017658 328.266829,400.667627 328.30273,400.416318 C326.938485,402.28318 325.969167,403.414051 325.394748,403.808964 C323.958701,404.814197 322.28932,405.280906 320.386557,405.209103 C319.201818,405.137301 318.519705,404.868046 318.340199,404.40133 C317.981188,403.396097 317.729883,402.803736 317.586278,402.62423 C317.370871,402.337021 317.191368,401.852362 317.047763,401.170239 C316.114332,405.298876 315.198865,408.22478 314.301336,409.948037 C313.942324,410.630159 313.583317,411.24047 313.224305,411.778988 C312.721689,412.963728 311.572868,413.789443 309.777808,414.256158 C308.090452,414.722874 306.474923,414.686973 304.931172,414.148455 C303.351519,413.645838 302.597606,412.748322 302.669408,411.455879 C302.74121,410.163436 303.00149,408.538932 303.450255,406.582317 C303.89902,404.625702 304.428555,402.552439 305.038875,400.362467 C306.869835,393.433537 308.171234,388.928005 308.94311,386.845736 C309.714985,384.763467 310.370172,383.129987 310.90869,381.945248 C312.201133,379.180856 313.349954,377.17042 314.355187,375.913878 C315.468124,373.652103 317.317008,372.287878 319.901893,371.821163 C321.948261,371.426249 323.743294,371.677554 325.287045,372.575084 Z M350.274149,415.010079 C348.443188,415.081882 346.764833,414.857503 345.239032,414.336935 C343.713232,413.816368 342.474659,413.10733 341.523278,412.2098 C340.571896,411.312271 339.97056,410.262177 339.719252,409.059487 C339.467943,407.856797 339.683347,406.627199 340.36547,405.370658 C341.298901,403.862808 343.165735,403.41405 345.966028,404.02437 C348.084198,404.455184 349.54715,404.688538 350.354926,404.72444 C351.162703,404.760341 351.853791,404.652639 352.42821,404.40133 C355.048997,403.539702 356.520924,402.606285 356.844034,401.601052 C357.059441,400.847127 356.592733,399.967561 355.443895,398.962327 C354.977179,398.531513 354.45662,398.100705 353.882201,397.669891 C353.307782,397.239077 352.823123,396.808269 352.42821,396.377454 C350.63315,395.04911 349.22405,393.514357 348.200866,391.77315 C347.177682,390.031942 346.755849,388.138183 346.935355,386.091815 C347.114861,384.045447 347.455917,382.349141 347.958534,381.002846 C348.461151,379.656552 349.089412,378.462855 349.843337,377.42172 C351.171681,375.59076 352.894912,374.100883 355.013083,372.952044 C357.454364,371.695503 359.410949,370.887738 360.882898,370.528726 C363.790894,369.882505 366.734748,369.828654 369.714547,370.367172 C370.71978,370.546678 371.581396,370.887734 372.29942,371.39035 C373.017443,371.892967 373.735457,372.413527 374.45348,372.952044 C375.710022,374.208586 376.015178,375.483059 375.368956,376.775502 C375.117648,377.349921 374.722741,377.81663 374.184223,378.175642 C373.645705,378.534654 373.071294,378.732107 372.460974,378.768008 C372.532777,379.73734 372.353273,380.455353 371.922459,380.922069 C371.096732,381.747796 369.660706,382.286306 367.614338,382.537614 C364.67044,382.322207 362.677954,382.48376 361.636819,383.022278 C360.416179,383.6685 359.967421,385.068625 360.290531,387.222696 C360.362334,387.689412 360.658514,388.174071 361.179081,388.676687 C361.699649,389.179304 362.30996,389.717814 363.010033,390.292233 C363.710106,390.866652 364.44607,391.512864 365.217945,392.230888 C365.989821,392.948911 366.662958,393.774626 367.237377,394.708057 C369.247844,398.010967 369.086291,401.870287 366.752713,406.286134 C365.029456,409.589043 362.085603,412.066188 357.921065,413.717643 C355.766993,414.579271 353.218047,415.010079 350.274149,415.010079 Z" id="CMS" stroke="#006B33" stroke-width="7"></path>
        </g>
    </g>
</svg>