<svg width="752" height="276" viewBox="0 0 752 276" fill="none" xmlns="http://www.w3.org/2000/svg">
<path fill-rule="evenodd" clip-rule="evenodd" d="M751.587 0.413177L679.284 38.4252L643.753 113.21L619.212 132.445L615.245 111.144L608.634 140.066L582.605 161.138L520.632 111.144L501.626 60.3234L438 64.8683L490.471 40.9042L501.626 46.2755L503.279 34.7066L521.871 26.4431L584.671 59.9102L677.218 8.67665L751.587 0.413177Z" fill="#81CD81"/>
<path fill-rule="evenodd" clip-rule="evenodd" d="M643.753 120.234L643.339 159.485L582.192 275.587L521.045 161.964L521.458 118.581L582.605 180.557L643.753 120.234Z" fill="#81CD81"/>
<path fill-rule="evenodd" clip-rule="evenodd" d="M438 64.8683L488.405 72.7186L501.626 60.3234L438 64.8683Z" fill="#00993D"/>
<path fill-rule="evenodd" clip-rule="evenodd" d="M520.632 111.144L501.626 60.3234L488.405 72.7186L520.632 111.144Z" fill="#006B33"/>
<path fill-rule="evenodd" clip-rule="evenodd" d="M643.753 113.21L679.284 38.4251L692.092 40.491L643.753 113.21Z" fill="#006B33"/>
<path fill-rule="evenodd" clip-rule="evenodd" d="M692.092 40.491L679.284 38.4252L751.174 0.413177L692.092 40.491Z" fill="#00993D"/>
<path fill-rule="evenodd" clip-rule="evenodd" d="M521.045 161.964L528.895 196.671L582.192 275.587L521.045 161.964Z" fill="#00993D"/>
<path fill-rule="evenodd" clip-rule="evenodd" d="M582.192 275.587L643.339 159.485L634.663 192.952L582.192 275.587Z" fill="#00993D"/>
<path fill-rule="evenodd" clip-rule="evenodd" d="M490.471 40.9042L501.626 46.2754L499.147 39.6647L490.471 40.9042Z" fill="#00993D"/>
<path fill-rule="evenodd" clip-rule="evenodd" d="M501.626 46.2754L499.147 39.6647L503.279 34.7066L501.626 46.2754Z" fill="#006B33"/>
<path fill-rule="evenodd" clip-rule="evenodd" d="M576.821 93.7904L556.576 78.9162H530.134L554.924 84.2874L576.821 93.7904Z" fill="#006B33"/>
<path fill-rule="evenodd" clip-rule="evenodd" d="M596.653 94.6168L612.766 82.2216L640.034 75.6108L610.287 77.6766L596.653 94.6168Z" fill="#006B33"/>
<path d="M55.1614 150.262C50.1186 152.191 44.6824 153.155 38.8526 153.155C16.2039 153.155 4.87952 142.27 4.87952 120.502C4.87952 99.9015 15.8104 89.6014 37.672 89.6014C43.9391 89.6014 49.7688 90.478 55.1614 92.2312V99.244C49.7688 97.1986 44.2305 96.1759 38.5465 96.1759C21.4944 96.1759 12.9683 104.284 12.9683 120.502C12.9683 137.887 21.3632 146.58 38.153 146.58C40.8347 146.58 43.8079 146.23 47.0726 145.528V124.227H55.1614V150.262Z" fill="black"/>
<path d="M74.8806 121.203C74.8806 138.121 82.5031 146.58 97.748 146.58C112.672 146.58 120.134 138.121 120.134 121.203C120.134 104.518 112.672 96.1759 97.748 96.1759C82.5031 96.1759 74.8806 104.518 74.8806 121.203ZM66.3546 121.466C66.3546 100.223 76.819 89.6014 97.748 89.6014C118.356 89.6014 128.66 100.223 128.66 121.466C128.66 142.592 118.356 153.155 97.748 153.155C76.819 153.155 66.3546 142.592 66.3546 121.466Z" fill="black"/>
<path d="M141.384 152.717V90.0397H168.055C179.948 90.0397 185.894 94.9048 185.894 104.635C185.894 111.765 182.017 116.864 174.264 119.932C182.542 121.48 186.681 126.229 186.681 134.177C186.681 146.537 180.167 152.717 167.137 152.717H141.384ZM166.656 146.142C174.118 146.142 177.849 142.343 177.849 134.746C177.849 127.354 172.85 123.657 162.852 123.657H159.354V118.354C171.305 116.747 177.281 112.422 177.281 105.38C177.281 99.5362 173.958 96.6142 167.312 96.6142H149.473V146.142H166.656Z" fill="black"/>
<path d="M207.625 90.0397V146.142H240.33V152.717H199.536V90.0397H207.625Z" fill="black"/>
<path d="M259.393 90.0397V152.717H251.304V90.0397H259.393Z" fill="black"/>
<path d="M275.615 152.717V90.0397H283.703L321.961 140.532V90.0397H329.613V152.717H321.524L283.266 101.786V152.717H275.615Z" fill="black"/>
<path d="M343.648 150.525V143.074C350.207 145.412 357.29 146.58 364.898 146.58C375.654 146.58 381.032 142.636 381.032 134.746C381.032 128.026 377.067 124.665 369.139 124.665H361.094C348.006 124.665 341.462 118.967 341.462 107.572C341.462 95.5915 349.842 89.6014 366.603 89.6014C373.89 89.6014 380.667 90.478 386.934 92.2312V99.6823C380.667 97.3447 373.89 96.1759 366.603 96.1759C355.235 96.1759 349.551 99.9745 349.551 107.572C349.551 114.292 353.398 117.653 361.094 117.653H369.139C382.46 117.653 389.12 123.35 389.12 134.746C389.12 147.019 381.046 153.155 364.898 153.155C357.29 153.155 350.207 152.278 343.648 150.525Z" fill="black"/>
<path d="M10 231.738V194.262H14.8351V210.772H36.9196V194.262H41.7547V231.738H36.9196V214.703H14.8351V231.738H10Z" fill="black"/>
<path d="M85.9367 194.262V198.193H66.335V210.772H85.022V214.703H66.335V227.807H86.3287V231.738H61.5V194.262H85.9367Z" fill="black"/>
<path d="M110.708 231.738H105.69L121.554 194.262H126.912L142.855 231.738H137.497L132.662 219.945H120.3L121.633 216.014H131.042L124.063 199.032L110.708 231.738Z" fill="black"/>
<path d="M176.375 227.807C185.522 227.807 190.096 222.531 190.096 211.978C190.096 202.788 185.522 198.193 176.375 198.193H167.619V227.807H176.375ZM162.784 231.738V194.262H176.375C188.746 194.262 194.931 200.167 194.931 211.978C194.931 225.151 188.746 231.738 176.375 231.738H162.784Z" fill="black"/>
<path d="M222.656 194.262V227.807H242.205V231.738H217.821V194.262H222.656Z" fill="black"/>
<path d="M284.251 194.262V198.193H264.649V210.772H283.336V214.703H264.649V227.807H284.643V231.738H259.814V194.262H284.251Z" fill="black"/>
<path d="M309.271 230.428V225.972C313.191 227.37 317.425 228.069 321.973 228.069C328.402 228.069 331.617 225.71 331.617 220.993C331.617 216.975 329.247 214.966 324.508 214.966H319.699C311.876 214.966 307.964 211.559 307.964 204.745C307.964 197.582 312.974 194 322.992 194C327.348 194 331.399 194.524 335.145 195.572V200.028C331.399 198.63 327.348 197.931 322.992 197.931C316.197 197.931 312.799 200.202 312.799 204.745C312.799 208.763 315.099 210.772 319.699 210.772H324.508C332.471 210.772 336.452 214.179 336.452 220.993C336.452 228.331 331.626 232 321.973 232C317.425 232 313.191 231.476 309.271 230.428Z" fill="black"/>
<path d="M355.819 230.428V225.972C359.739 227.37 363.973 228.069 368.521 228.069C374.95 228.069 378.165 225.71 378.165 220.993C378.165 216.975 375.795 214.966 371.056 214.966H366.247C358.424 214.966 354.512 211.559 354.512 204.745C354.512 197.582 359.522 194 369.54 194C373.896 194 377.947 194.524 381.693 195.572V200.028C377.947 198.63 373.896 197.931 369.54 197.931C362.745 197.931 359.347 200.202 359.347 204.745C359.347 208.763 361.647 210.772 366.247 210.772H371.056C379.019 210.772 383 214.179 383 220.993C383 228.331 378.174 232 368.521 232C363.973 232 359.739 231.476 355.819 230.428Z" fill="black"/>
</svg>
