<svg width="75" height="58" viewBox="0 0 75 58" fill="none" xmlns="http://www.w3.org/2000/svg">
<path d="M72.996 56H2V6.04782H12.5745L21.1335 2H73L72.996 56Z" stroke="#030504" stroke-width="3" stroke-linecap="round" stroke-linejoin="round"/>
<path d="M26.6121 26.256C25.9641 25.488 25.0041 24.96 23.6361 24.96C22.4361 24.96 21.4041 25.416 20.8521 26.088V25.2H17.0841V36H20.8521V29.424C21.0201 28.68 21.5961 28.272 22.2441 28.272C23.0841 28.272 23.4681 28.92 23.4681 29.832V36H27.2121V29.424C27.4041 28.68 27.9561 28.272 28.6041 28.272C29.4441 28.272 29.8281 28.92 29.8281 29.832V36H33.5961V28.92C33.5961 26.496 32.2041 24.96 29.9481 24.96C28.3641 24.96 27.2601 25.584 26.6121 26.256ZM39.2975 35.136C39.8015 35.712 40.8575 36.24 41.9615 36.24C45.0815 36.24 46.7855 33.672 46.7855 30.6C46.7855 27.504 45.0815 24.96 41.9615 24.96C40.8575 24.96 39.8015 25.488 39.2975 26.064V25.2H35.5295V39.816H39.2975V35.136ZM39.2975 29.16C39.5855 28.584 40.2095 28.152 40.9535 28.152C42.2495 28.152 43.0175 29.208 43.0175 30.6C43.0175 31.992 42.2495 33.024 40.9535 33.024C40.2335 33.024 39.5855 32.616 39.2975 32.016V29.16ZM51.8566 29.928H52.7686C53.8966 29.928 54.6886 30.456 54.6886 31.464C54.6886 32.4 54.0166 33 53.0566 33C51.9526 33 51.3526 32.28 51.2566 31.272H47.4166C47.6086 34.248 49.7446 36.24 53.1286 36.24C56.3686 36.24 58.3606 34.272 58.3606 31.656C58.3606 30.312 57.7366 29.112 56.5606 28.56C57.4726 28.056 58.1686 26.808 58.1686 25.536C58.1686 22.872 56.2486 21.024 53.1526 21.024C49.9126 21.024 47.9446 23.208 47.6326 25.872H51.3286C51.4246 24.984 52.0006 24.24 53.0326 24.24C53.9686 24.24 54.5206 24.864 54.5206 25.68C54.5206 26.712 53.7046 27.168 52.6486 27.168H51.8566V29.928Z" fill="black"/>
</svg>
