<svg width="689" height="706" viewBox="0 0 689 706" fill="none" xmlns="http://www.w3.org/2000/svg">
<path fill-rule="evenodd" clip-rule="evenodd" d="M380.28 41.812H508.13L584.09 173.402L520.17 284.112L380.28 41.812ZM380.28 304.982L432.16 215.121L484.04 304.982H380.28ZM420.11 457.422H268.17L204.25 346.712H484.03L420.11 457.422ZM104.19 173.402L180.16 41.812H308L168.11 284.112L104.19 173.402ZM292.26 152.531L344.14 62.681L396.02 152.531H292.26ZM308 304.982H204.25L256.12 215.121L308 304.982ZM292.26 194.261H396.02L344.14 284.122L292.26 194.261ZM532.22 0.09198H156.06L56 173.402L244.08 499.152H444.2L632.28 173.402L532.22 0.09198Z" fill="#505050"/>
<path fill-rule="evenodd" clip-rule="evenodd" d="M420.11 457.422H268.17L204.25 346.712H484.03L420.11 457.422Z" fill="#B8CABC"/>
<path fill-rule="evenodd" clip-rule="evenodd" d="M396.02 194.261L344.14 284.122L292.26 194.261H396.02Z" fill="#FF8100"/>
<path fill-rule="evenodd" clip-rule="evenodd" d="M584.09 173.402L520.17 284.112L380.28 41.812H508.13L584.09 173.402Z" fill="#B8CABC"/>
<path fill-rule="evenodd" clip-rule="evenodd" d="M308 41.812L168.11 284.112L104.19 173.402L180.16 41.812H308" fill="#B8CABC"/>
<path d="M8.93555 678.881V593.814H47.6562C65.0508 593.814 73.748 601.42 73.748 616.63C73.748 626.916 66.9769 635.434 53.4346 642.186L80.4199 679H60.5234L34.6104 641.888V634.68C49.7015 632.098 57.2471 626.241 57.2471 617.106C57.2471 610.832 53.7126 607.694 46.6436 607.694H25.0195V678.881H8.93555ZM163.325 593.814V607.396H120.673V628.842H161.3V642.96H120.494V665.299H164.159V679H105.006V593.814H163.325ZM204.591 679H188.388L224.547 593.814H241.524L278.458 679H261.48L251.77 655.768H223.474L228.895 642.066H246.052L232.648 610.077L204.591 679ZM373.873 675.426C366.526 678.206 358.186 679.596 348.853 679.596C318.274 679.596 302.984 664.802 302.984 635.216C302.984 607.218 318.274 593.219 348.853 593.219C358.186 593.219 366.526 594.609 373.873 597.389V611.686C366.526 608.508 358.583 606.92 350.045 606.92C329.592 606.92 319.366 616.352 319.366 635.216C319.366 655.668 329.592 665.895 350.045 665.895C358.583 665.895 366.526 664.306 373.873 661.129V675.426ZM461.544 593.814V607.516H437.12V679H421.334V607.516H396.91V593.814H461.544ZM501.022 636.169C501.022 655.986 509.819 665.895 527.412 665.895C544.568 665.895 553.146 655.986 553.146 636.169C553.146 616.67 544.568 606.92 527.412 606.92C509.819 606.92 501.022 616.67 501.022 636.169ZM484.64 636.526C484.64 607.655 498.897 593.219 527.412 593.219C555.489 593.219 569.528 607.655 569.528 636.526C569.528 665.239 555.489 679.596 527.412 679.596C500.168 679.596 485.911 665.239 484.64 636.526ZM601.56 678.881V593.814H640.281C657.675 593.814 666.373 601.42 666.373 616.63C666.373 626.916 659.601 635.434 646.059 642.186L673.044 679H653.148L627.235 641.888V634.68C642.326 632.098 649.872 626.241 649.872 617.106C649.872 610.832 646.337 607.694 639.268 607.694H617.644V678.881H601.56Z" fill="#505050"/>
<path d="M8.93555 678.881H4.93555V682.881H8.93555V678.881ZM8.93555 593.814V589.814H4.93555V593.814H8.93555ZM53.4346 642.186L51.6499 638.606L47.403 640.723L50.2085 644.55L53.4346 642.186ZM80.4199 679V683H88.3115L83.646 676.635L80.4199 679ZM60.5234 679L57.2438 681.29L58.4378 683H60.5234V679ZM34.6104 641.888H30.6104V643.146L31.3307 644.178L34.6104 641.888ZM34.6104 634.68L33.9359 630.737L30.6104 631.306V634.68H34.6104ZM25.0195 607.694V603.694H21.0195V607.694H25.0195ZM25.0195 678.881V682.881H29.0195V678.881H25.0195ZM12.9355 678.881V593.814H4.93555V678.881H12.9355ZM8.93555 597.814H47.6562V589.814H8.93555V597.814ZM47.6562 597.814C55.8589 597.814 61.2639 599.619 64.5921 602.529C67.8177 605.35 69.748 609.791 69.748 616.63H77.748C77.748 608.258 75.3298 601.292 69.8581 596.507C64.4891 591.812 56.8481 589.814 47.6562 589.814V597.814ZM69.748 616.63C69.748 624.734 64.555 632.172 51.6499 638.606L55.2192 645.765C69.3988 638.696 77.748 629.098 77.748 616.63H69.748ZM50.2085 644.55L77.1938 681.365L83.646 676.635L56.6607 639.821L50.2085 644.55ZM80.4199 675H60.5234V683H80.4199V675ZM63.8031 676.71L37.89 639.598L31.3307 644.178L57.2438 681.29L63.8031 676.71ZM38.6104 641.888V634.68H30.6104V641.888H38.6104ZM35.2848 638.622C43.1285 637.281 49.5262 635.015 54.0408 631.51C58.7376 627.864 61.2471 622.974 61.2471 617.106H53.2471C53.2471 620.374 51.9837 622.979 49.135 625.191C46.104 627.544 41.1834 629.497 33.9359 630.737L35.2848 638.622ZM61.2471 617.106C61.2471 613.221 60.1308 609.612 57.2516 607.056C54.4632 604.581 50.685 603.694 46.6436 603.694V611.694C49.6711 611.694 51.1946 612.377 51.9408 613.039C52.5961 613.621 53.2471 614.717 53.2471 617.106H61.2471ZM46.6436 603.694H25.0195V611.694H46.6436V603.694ZM21.0195 607.694V678.881H29.0195V607.694H21.0195ZM25.0195 674.881H8.93555V682.881H25.0195V674.881ZM163.325 593.814H167.325V589.814H163.325V593.814ZM163.325 607.396V611.396H167.325V607.396H163.325ZM120.673 607.396V603.396H116.673V607.396H120.673ZM120.673 628.842H116.673V632.842H120.673V628.842ZM161.3 628.842H165.3V624.842H161.3V628.842ZM161.3 642.96V646.96H165.3V642.96H161.3ZM120.494 642.96V638.96H116.494V642.96H120.494ZM120.494 665.299H116.494V669.299H120.494V665.299ZM164.159 665.299H168.159V661.299H164.159V665.299ZM164.159 679V683H168.159V679H164.159ZM105.006 679H101.006V683H105.006V679ZM105.006 593.814V589.814H101.006V593.814H105.006ZM159.325 593.814V607.396H167.325V593.814H159.325ZM163.325 603.396H120.673V611.396H163.325V603.396ZM116.673 607.396V628.842H124.673V607.396H116.673ZM120.673 632.842H161.3V624.842H120.673V632.842ZM157.3 628.842V642.96H165.3V628.842H157.3ZM161.3 638.96H120.494V646.96H161.3V638.96ZM116.494 642.96V665.299H124.494V642.96H116.494ZM120.494 669.299H164.159V661.299H120.494V669.299ZM160.159 665.299V679H168.159V665.299H160.159ZM164.159 675H105.006V683H164.159V675ZM109.006 679V593.814H101.006V679H109.006ZM105.006 597.814H163.325V589.814H105.006V597.814ZM204.591 679V683H207.281L208.295 680.508L204.591 679ZM188.388 679L184.706 677.437L182.344 683H188.388V679ZM224.547 593.814V589.814H221.899L220.865 592.252L224.547 593.814ZM241.524 593.814L245.194 592.223L244.15 589.814H241.524V593.814ZM278.458 679V683H284.552L282.128 677.409L278.458 679ZM261.48 679L257.79 680.542L258.817 683H261.48V679ZM251.77 655.768L255.461 654.225L254.434 651.768H251.77V655.768ZM223.474 655.768L219.755 654.296L217.59 659.768H223.474V655.768ZM228.895 642.066V638.066H226.176L225.176 640.595L228.895 642.066ZM246.052 642.066V646.066H252.065L249.741 640.521L246.052 642.066ZM232.648 610.077L236.338 608.531L232.595 599.599L228.944 608.569L232.648 610.077ZM204.591 675H188.388V683H204.591V675ZM192.07 680.563L228.229 595.377L220.865 592.252L184.706 677.437L192.07 680.563ZM224.547 597.814H241.524V589.814H224.547V597.814ZM237.854 595.406L274.788 680.591L282.128 677.409L245.194 592.223L237.854 595.406ZM278.458 675H261.48V683H278.458V675ZM265.171 677.458L255.461 654.225L248.08 657.31L257.79 680.542L265.171 677.458ZM251.77 651.768H223.474V659.768H251.77V651.768ZM227.194 657.239L232.615 643.538L225.176 640.595L219.755 654.296L227.194 657.239ZM228.895 646.066H246.052V638.066H228.895V646.066ZM249.741 640.521L236.338 608.531L228.959 611.623L242.362 643.612L249.741 640.521ZM228.944 608.569L200.886 677.492L208.295 680.508L236.353 611.585L228.944 608.569ZM373.873 675.426L375.288 679.167L377.873 678.189V675.426H373.873ZM373.873 597.389H377.873V594.625L375.288 593.648L373.873 597.389ZM373.873 611.686L372.285 615.357L377.873 617.773V611.686H373.873ZM373.873 661.129H377.873V655.041L372.285 657.457L373.873 661.129ZM372.457 671.685C365.639 674.265 357.791 675.596 348.853 675.596V683.596C358.581 683.596 367.413 682.147 375.288 679.167L372.457 671.685ZM348.853 675.596C334.148 675.596 323.859 672.037 317.233 665.626C310.631 659.239 306.984 649.358 306.984 635.216H298.984C298.984 650.66 302.982 662.97 311.67 671.375C320.333 679.758 332.979 683.596 348.853 683.596V675.596ZM306.984 635.216C306.984 621.929 310.596 612.671 317.153 606.668C323.776 600.604 334.097 597.219 348.853 597.219V589.219C333.03 589.219 320.417 592.833 311.75 600.768C303.017 608.764 298.984 620.505 298.984 635.216H306.984ZM348.853 597.219C357.791 597.219 365.639 598.55 372.457 601.13L375.288 593.648C367.413 590.668 358.581 589.219 348.853 589.219V597.219ZM369.873 597.389V611.686H377.873V597.389H369.873ZM375.46 608.014C367.579 604.606 359.092 602.92 350.045 602.92V610.92C358.074 610.92 365.472 612.411 372.285 615.357L375.46 608.014ZM350.045 602.92C339.278 602.92 330.458 605.396 324.324 611.054C318.128 616.768 315.366 625.08 315.366 635.216H323.366C323.366 626.487 325.717 620.652 329.748 616.934C333.839 613.16 340.358 610.92 350.045 610.92V602.92ZM315.366 635.216C315.366 646.059 318.079 654.925 324.207 661.053C330.335 667.181 339.202 669.895 350.045 669.895V661.895C340.435 661.895 333.962 659.495 329.864 655.396C325.766 651.298 323.366 644.825 323.366 635.216H315.366ZM350.045 669.895C359.092 669.895 367.579 668.208 375.46 664.8L372.285 657.457C365.472 660.404 358.074 661.895 350.045 661.895V669.895ZM369.873 661.129V675.426H377.873V661.129H369.873ZM461.544 593.814H465.544V589.814H461.544V593.814ZM461.544 607.516V611.516H465.544V607.516H461.544ZM437.12 607.516V603.516H433.12V607.516H437.12ZM437.12 679V683H441.12V679H437.12ZM421.334 679H417.334V683H421.334V679ZM421.334 607.516H425.334V603.516H421.334V607.516ZM396.91 607.516H392.91V611.516H396.91V607.516ZM396.91 593.814V589.814H392.91V593.814H396.91ZM457.544 593.814V607.516H465.544V593.814H457.544ZM461.544 603.516H437.12V611.516H461.544V603.516ZM433.12 607.516V679H441.12V607.516H433.12ZM437.12 675H421.334V683H437.12V675ZM425.334 679V607.516H417.334V679H425.334ZM421.334 603.516H396.91V611.516H421.334V603.516ZM400.91 607.516V593.814H392.91V607.516H400.91ZM396.91 597.814H461.544V589.814H396.91V597.814ZM484.64 636.526H480.64V636.615L480.644 636.703L484.64 636.526ZM497.022 636.169C497.022 646.585 499.323 655.143 504.628 661.119C510.014 667.185 517.867 669.895 527.412 669.895V661.895C519.363 661.895 514.022 659.65 510.611 655.808C507.119 651.874 505.022 645.57 505.022 636.169H497.022ZM527.412 669.895C536.769 669.895 544.469 667.166 549.737 661.081C554.909 655.107 557.146 646.564 557.146 636.169H549.146C549.146 645.591 547.094 651.911 543.688 655.845C540.378 659.669 535.211 661.895 527.412 661.895V669.895ZM557.146 636.169C557.146 625.92 554.903 617.486 549.716 611.59C544.442 605.597 536.749 602.92 527.412 602.92V610.92C535.231 610.92 540.404 613.118 543.709 616.874C547.1 620.729 549.146 626.919 549.146 636.169H557.146ZM527.412 602.92C517.886 602.92 510.04 605.578 504.65 611.553C499.33 617.449 497.022 625.899 497.022 636.169H505.022C505.022 626.94 507.113 620.765 510.589 616.912C513.996 613.136 519.344 610.92 527.412 610.92V602.92ZM488.64 636.526C488.64 622.695 492.054 613.058 498.179 606.856C504.295 600.664 513.784 597.219 527.412 597.219V589.219C512.525 589.219 500.629 592.991 492.487 601.235C484.355 609.469 480.64 621.486 480.64 636.526H488.64ZM527.412 597.219C540.805 597.219 550.122 600.655 556.131 606.834C562.161 613.034 565.528 622.68 565.528 636.526H573.528C573.528 621.501 569.876 609.493 561.866 601.257C553.837 593 542.096 589.219 527.412 589.219V597.219ZM565.528 636.526C565.528 650.288 562.163 659.871 556.139 666.032C550.131 672.176 540.811 675.596 527.412 675.596V683.596C542.09 683.596 553.828 679.837 561.859 671.625C569.873 663.429 573.528 651.477 573.528 636.526H565.528ZM527.412 675.596C514.475 675.596 505.271 672.199 499.124 666.01C492.943 659.786 489.246 650.128 488.636 636.35L480.644 636.703C481.305 651.638 485.372 663.515 493.448 671.647C501.559 679.814 513.105 683.596 527.412 683.596V675.596ZM601.56 678.881H597.56V682.881H601.56V678.881ZM601.56 593.814V589.814H597.56V593.814H601.56ZM646.059 642.186L644.274 638.606L640.027 640.723L642.833 644.55L646.059 642.186ZM673.044 679V683H680.936L676.271 676.635L673.044 679ZM653.148 679L649.868 681.29L651.062 683H653.148V679ZM627.235 641.888H623.235V643.146L623.955 644.178L627.235 641.888ZM627.235 634.68L626.56 630.737L623.235 631.306V634.68H627.235ZM617.644 607.694V603.694H613.644V607.694H617.644ZM617.644 678.881V682.881H621.644V678.881H617.644ZM605.56 678.881V593.814H597.56V678.881H605.56ZM601.56 597.814H640.281V589.814H601.56V597.814ZM640.281 597.814C648.483 597.814 653.888 599.619 657.217 602.529C660.442 605.35 662.373 609.791 662.373 616.63H670.373C670.373 608.258 667.954 601.292 662.483 596.507C657.114 591.812 649.473 589.814 640.281 589.814V597.814ZM662.373 616.63C662.373 624.734 657.18 632.172 644.274 638.606L647.844 645.765C662.023 638.696 670.373 629.098 670.373 616.63H662.373ZM642.833 644.55L669.818 681.365L676.271 676.635L649.285 639.821L642.833 644.55ZM673.044 675H653.148V683H673.044V675ZM656.428 676.71L630.515 639.598L623.955 644.178L649.868 681.29L656.428 676.71ZM631.235 641.888V634.68H623.235V641.888H631.235ZM627.909 638.622C635.753 637.281 642.151 635.015 646.665 631.51C651.362 627.864 653.872 622.974 653.872 617.106H645.872C645.872 620.374 644.608 622.979 641.76 625.191C638.729 627.544 633.808 629.497 626.56 630.737L627.909 638.622ZM653.872 617.106C653.872 613.221 652.755 609.612 649.876 607.056C647.088 604.581 643.31 603.694 639.268 603.694V611.694C642.296 611.694 643.819 612.377 644.565 613.039C645.221 613.621 645.872 614.717 645.872 617.106H653.872ZM639.268 603.694H617.644V611.694H639.268V603.694ZM613.644 607.694V678.881H621.644V607.694H613.644ZM617.644 674.881H601.56V682.881H617.644V674.881Z" fill="#505050"/>
</svg>
