<svg xmlns="http://www.w3.org/2000/svg" width="39" height="56.362" viewBox="0 0 39 56.362"><defs><style>.a{fill:#1a1818;}.b{fill:none;stroke:#030504;stroke-linecap:round;stroke-linejoin:round;stroke-width:3px;}</style></defs><g transform="translate(-209.318 -357.108)"><path class="a" d="M219.7,377.781v2.952h-1.759v-8.508H221.4c1.8,0,2.993.969,2.993,2.785s-1.192,2.771-2.993,2.771Zm1.594-4.045H219.7v2.536h1.594a1.271,1.271,0,1,0,0-2.536Z"/><path class="a" d="M225.589,372.225H228.6a4.254,4.254,0,0,1,0,8.508h-3.007Zm2.938,6.943a2.7,2.7,0,0,0,0-5.392h-1.178v5.392Z"/><path class="a" d="M234.032,380.733v-8.508H239.7v1.551h-3.907v2.162h3.617v1.539h-3.617v3.256Z"/><line class="b" x2="21.764" transform="translate(217.936 405.033)"/><line class="b" x2="21.764" transform="translate(217.936 398.14)"/><path class="b" d="M246.818,411.97h-36V362.608h5.362l4.34-4h26.3Z"/></g></svg>
